<?xml version="1.0" encoding="utf-8"?>
<svg version="1.1" xmlns:xlink="http://www.w3.org/1999/xlink" width="275px" height="31px" xmlns="http://www.w3.org/2000/svg">
  <g transform="matrix(1 0 0 1 -47 -1352 )">
    <path d="M 48 1367.5  A 14.5 14.5 0 0 1 62.5 1353 L 306.5 1353  A 14.5 14.5 0 0 1 321 1367.5 A 14.5 14.5 0 0 1 306.5 1382 L 62.5 1382  A 14.5 14.5 0 0 1 48 1367.5 Z " fill-rule="nonzero" fill="#409eff" stroke="none" fill-opacity="0" />
    <path d="M 47.5 1367.5  A 15 15 0 0 1 62.5 1352.5 L 306.5 1352.5  A 15 15 0 0 1 321.5 1367.5 A 15 15 0 0 1 306.5 1382.5 L 62.5 1382.5  A 15 15 0 0 1 47.5 1367.5 Z " stroke-width="1" stroke="#a4a4a4" fill="none" stroke-opacity="0.988235294117647" />
  </g>
</svg>