<?xml version="1.0" encoding="utf-8"?>
<svg version="1.1" xmlns:xlink="http://www.w3.org/1999/xlink" width="21px" height="10px" preserveAspectRatio="xMinYMid meet" viewBox="475 618  21 8" xmlns="http://www.w3.org/2000/svg">
  <path d="M 176 727  L 176 735  A 5 5 0 0 0 181 740 L 475 740  A 5 5 0 0 0 480 735 L 480 627  A 5 5 0 0 1 485 622 L 494 622  " stroke-width="2" stroke="#ec808d" fill="none" />
  <path d="M 176 725  A 3.5 3.5 0 0 0 172.5 728.5 A 3.5 3.5 0 0 0 176 732 A 3.5 3.5 0 0 0 179.5 728.5 A 3.5 3.5 0 0 0 176 725 Z M 486.6 630  L 496 622  L 486.6 614  L 490.2 622  L 486.6 630  Z " fill-rule="nonzero" fill="#ec808d" stroke="none" />
</svg>