<?xml version="1.0" encoding="utf-8"?>
<svg version="1.1" xmlns:xlink="http://www.w3.org/1999/xlink" width="21px" height="20px" preserveAspectRatio="xMinYMid meet" viewBox="839 613  21 18" xmlns="http://www.w3.org/2000/svg">
  <defs>
    <mask fill="white" id="clip175">
      <path d="M 861.5 609  L 920.5 609  L 920.5 634  L 861.5 634  Z M 836 605  L 953 605  L 953 639  L 836 639  Z " fill-rule="evenodd" />
    </mask>
  </defs>
  <path d="M 861.5 622  L 848 622  M 920.5 622  L 934 622  " stroke-width="2" stroke="#ec808d" fill="none" />
  <path d="M 849.5 618.5  A 3.5 3.5 0 0 0 846 622 A 3.5 3.5 0 0 0 849.5 625.5 A 3.5 3.5 0 0 0 853 622 A 3.5 3.5 0 0 0 849.5 618.5 Z M 926.6 630  L 936 622  L 926.6 614  L 930.2 622  L 926.6 630  Z " fill-rule="nonzero" fill="#ec808d" stroke="none" mask="url(#clip175)" />
</svg>