<?xml version="1.0" encoding="utf-8"?>
<svg version="1.1" xmlns:xlink="http://www.w3.org/1999/xlink" width="16px" height="10px" preserveAspectRatio="xMinYMid meet" viewBox="1325 774  16 8" xmlns="http://www.w3.org/2000/svg">
  <path d="M 1267 402  L 1325 402  A 5 5 0 0 1 1330 407 L 1330 773  A 5 5 0 0 0 1335 778 L 1339 778  " stroke-width="2" stroke="#ec808d" fill="none" />
  <path d="M 1268.5 398.5  A 3.5 3.5 0 0 0 1265 402 A 3.5 3.5 0 0 0 1268.5 405.5 A 3.5 3.5 0 0 0 1272 402 A 3.5 3.5 0 0 0 1268.5 398.5 Z M 1331.6 786  L 1341 778  L 1331.6 770  L 1335.2 778  L 1331.6 786  Z " fill-rule="nonzero" fill="#ec808d" stroke="none" />
</svg>