<?xml version="1.0" encoding="utf-8"?>
<svg version="1.1" xmlns:xlink="http://www.w3.org/1999/xlink" width="55px" height="10px" preserveAspectRatio="xMinYMid meet" viewBox="399 701  55 8" xmlns="http://www.w3.org/2000/svg">
  <path d="M 401 705  L 444 705  A 5 5 0 0 0 449 700 L 449 194  A 5 5 0 0 1 454 189 L 496 189  " stroke-width="2" stroke="#ec808d" fill="none" />
  <path d="M 402.5 701.5  A 3.5 3.5 0 0 0 399 705 A 3.5 3.5 0 0 0 402.5 708.5 A 3.5 3.5 0 0 0 406 705 A 3.5 3.5 0 0 0 402.5 701.5 Z M 488.6 197  L 498 189  L 488.6 181  L 492.2 189  L 488.6 197  Z " fill-rule="nonzero" fill="#ec808d" stroke="none" />
</svg>