<?xml version="1.0" encoding="utf-8"?>
<svg version="1.1" xmlns:xlink="http://www.w3.org/1999/xlink" width="34px" height="34px" preserveAspectRatio="xMinYMid meet" viewBox="755 313  34 32" xmlns="http://www.w3.org/2000/svg">
  <path d="M 721 390  L 755 390  A 5 5 0 0 0 760 385 L 760 334  A 5 5 0 0 1 765 329 L 772 329  " stroke-width="2" stroke="#ec808d" fill="none" />
  <path d="M 722.5 386.5  A 3.5 3.5 0 0 0 719 390 A 3.5 3.5 0 0 0 722.5 393.5 A 3.5 3.5 0 0 0 726 390 A 3.5 3.5 0 0 0 722.5 386.5 Z M 764.6 337  L 774 329  L 764.6 321  L 768.2 329  L 764.6 337  Z " fill-rule="nonzero" fill="#ec808d" stroke="none" />
</svg>