<?xml version="1.0" encoding="utf-8"?>
<svg version="1.1" xmlns:xlink="http://www.w3.org/1999/xlink" width="34px" height="34px" preserveAspectRatio="xMinYMid meet" viewBox="1121 351  34 32" xmlns="http://www.w3.org/2000/svg">
  <path d="M 1051 388  L 1125 388  A 5 5 0 0 0 1130 383 L 1130 372  A 5 5 0 0 1 1135 367 L 1138 367  " stroke-width="2" stroke="#ec808d" fill="none" />
  <path d="M 1052.5 384.5  A 3.5 3.5 0 0 0 1049 388 A 3.5 3.5 0 0 0 1052.5 391.5 A 3.5 3.5 0 0 0 1056 388 A 3.5 3.5 0 0 0 1052.5 384.5 Z M 1130.6 375  L 1140 367  L 1130.6 359  L 1134.2 367  L 1130.6 375  Z " fill-rule="nonzero" fill="#ec808d" stroke="none" />
</svg>