<?xml version="1.0" encoding="utf-8"?>
<svg version="1.1" xmlns:xlink="http://www.w3.org/1999/xlink" width="10px" height="16px" preserveAspectRatio="xMidYMin meet" viewBox="505 115  8 16" xmlns="http://www.w3.org/2000/svg">
  <path d="M 509 131  L 509 125  A 5 5 0 0 0 504 120 L 369 120  A 5 5 0 0 0 364 125 L 364 819  A 5 5 0 0 0 369 824 L 502 824  A 5 5 0 0 1 507 829 L 507 835  " stroke-width="2" stroke-dasharray="6,2" stroke="#ec808d" fill="none" />
  <path d="M 511.292893218813 829.892893218813  L 507 834.185786437627  L 502.707106781187 829.892893218813  L 501.292893218813 831.307106781187  L 506.292893218813 836.307106781187  L 507 837.014213562373  L 507.707106781187 836.307106781187  L 512.707106781187 831.307106781187  L 511.292893218813 829.892893218813  Z " fill-rule="nonzero" fill="#ec808d" stroke="none" />
</svg>