<?xml version="1.0" encoding="utf-8"?>
<svg version="1.1" xmlns:xlink="http://www.w3.org/1999/xlink" width="23px" height="10px" preserveAspectRatio="xMinYMid meet" viewBox="1125 611  23 8" xmlns="http://www.w3.org/2000/svg">
  <path d="M 1148 615  L 1135 615  A 5 5 0 0 0 1130 620 L 1130 677  A 5 5 0 0 0 1135 682 L 1535 682  A 5 5 0 0 0 1540 677 L 1540 348  A 5 5 0 0 1 1545 343 L 1550 343  " stroke-width="2" stroke-dasharray="6,2" stroke="#ec808d" fill="none" />
  <path d="M 1544.89289321881 338.707106781187  L 1549.18578643763 343  L 1544.89289321881 347.292893218813  L 1546.30710678119 348.707106781187  L 1551.30710678119 343.707106781187  L 1552.01421356237 343  L 1551.30710678119 342.292893218813  L 1546.30710678119 337.292893218813  L 1544.89289321881 338.707106781187  Z " fill-rule="nonzero" fill="#ec808d" stroke="none" />
</svg>