<?xml version="1.0" encoding="utf-8"?>
<svg version="1.1" xmlns:xlink="http://www.w3.org/1999/xlink" width="331px" height="73px" xmlns="http://www.w3.org/2000/svg">
  <g transform="matrix(1 0 0 1 -59 -140 )">
    <path d="M 60 145  A 4 4 0 0 1 64 141 L 385 141  A 4 4 0 0 1 389 145 L 389 208  A 4 4 0 0 1 385 212 L 64 212  A 4 4 0 0 1 60 208 L 60 145  Z " fill-rule="nonzero" fill="#ffffff" stroke="none" />
    <path d="M 59.5 145  A 4.5 4.5 0 0 1 64 140.5 L 385 140.5  A 4.5 4.5 0 0 1 389.5 145 L 389.5 208  A 4.5 4.5 0 0 1 385 212.5 L 64 212.5  A 4.5 4.5 0 0 1 59.5 208 L 59.5 145  Z " stroke-width="1" stroke="#e6e6e6" fill="none" stroke-opacity="0.780392156862745" />
  </g>
</svg>