<?xml version="1.0" encoding="utf-8"?>
<svg version="1.1" xmlns:xlink="http://www.w3.org/1999/xlink" width="21px" height="20px" preserveAspectRatio="xMinYMid meet" viewBox="1243 198  21 18" xmlns="http://www.w3.org/2000/svg">
  <path d="M 997 318  L 997 212  A 5 5 0 0 1 1002 207 L 1255 207  " stroke-width="2" stroke="#ec808d" fill="none" />
  <path d="M 997 313  A 3.5 3.5 0 0 0 993.5 316.5 A 3.5 3.5 0 0 0 997 320 A 3.5 3.5 0 0 0 1000.5 316.5 A 3.5 3.5 0 0 0 997 313 Z M 1253.5 203.5  A 3.5 3.5 0 0 0 1250 207 A 3.5 3.5 0 0 0 1253.5 210.5 A 3.5 3.5 0 0 0 1257 207 A 3.5 3.5 0 0 0 1253.5 203.5 Z " fill-rule="nonzero" fill="#ec808d" stroke="none" />
</svg>