<?xml version="1.0" encoding="utf-8"?>
<svg version="1.1" xmlns:xlink="http://www.w3.org/1999/xlink" width="6px" height="10px" preserveAspectRatio="xMidYMin meet" viewBox="1561 620  4 10" xmlns="http://www.w3.org/2000/svg">
  <path d="M 1561 626  L 1561 657  A 5 5 0 0 1 1556 662 L 1159 662  A 5 5 0 0 1 1154 657 L 1154 495  A 5 5 0 0 0 1149 490 L 1092 490  " stroke-width="2" stroke="#ec808d" fill="none" />
  <path d="M 1561 624.429203673205  A 3.5 3.5 0 0 0 1557.5 627.929203673205 A 3.5 3.5 0 0 0 1561 631.429203673205 A 3.5 3.5 0 0 0 1564.5 627.929203673205 A 3.5 3.5 0 0 0 1561 624.429203673205 Z M 1099.4 482  L 1090 490  L 1099.4 498  L 1095.8 490  L 1099.4 482  Z " fill-rule="nonzero" fill="#ec808d" stroke="none" />
</svg>