<?xml version="1.0" encoding="utf-8"?>
<svg version="1.1" xmlns:xlink="http://www.w3.org/1999/xlink" width="344px" height="10px" preserveAspectRatio="xMinYMid meet" viewBox="1087 326  344 8" xmlns="http://www.w3.org/2000/svg">
  <path d="M 1089 330  L 1421 330  A 5 5 0 0 1 1426 335 L 1426 354  " stroke-width="2" stroke="#ec808d" fill="none" />
  <path d="M 1090.5 326.5  A 3.5 3.5 0 0 0 1087 330 A 3.5 3.5 0 0 0 1090.5 333.5 A 3.5 3.5 0 0 0 1094 330 A 3.5 3.5 0 0 0 1090.5 326.5 Z M 1426 349  A 3.5 3.5 0 0 0 1422.5 352.5 A 3.5 3.5 0 0 0 1426 356 A 3.5 3.5 0 0 0 1429.5 352.5 A 3.5 3.5 0 0 0 1426 349 Z " fill-rule="nonzero" fill="#ec808d" stroke="none" />
</svg>