<?xml version="1.0" encoding="utf-8"?>
<svg version="1.1" xmlns:xlink="http://www.w3.org/1999/xlink" width="10px" height="458px" preserveAspectRatio="xMidYMin meet" viewBox="1171 686  8 458" xmlns="http://www.w3.org/2000/svg">
  <path d="M 1078 688  L 1080.5 688  A 1.5 1.5 0 0 1 1082 689.5 A 1.5 1.5 0 0 0 1083.5 691 L 1170 691  A 5 5 0 0 1 1175 696 L 1175 1134  A 5 5 0 0 0 1180 1139 L 1258 1139  " stroke-width="2" stroke="#ec808d" fill="none" />
  <path d="M 1079.5 684.5  A 3.5 3.5 0 0 0 1076 688 A 3.5 3.5 0 0 0 1079.5 691.5 A 3.5 3.5 0 0 0 1083 688 A 3.5 3.5 0 0 0 1079.5 684.5 Z M 1256.5 1135.5  A 3.5 3.5 0 0 0 1253 1139 A 3.5 3.5 0 0 0 1256.5 1142.5 A 3.5 3.5 0 0 0 1260 1139 A 3.5 3.5 0 0 0 1256.5 1135.5 Z " fill-rule="nonzero" fill="#ec808d" stroke="none" />
</svg>