<?xml version="1.0" encoding="utf-8"?>
<svg version="1.1" xmlns:xlink="http://www.w3.org/1999/xlink" width="10px" height="30px" preserveAspectRatio="xMidYMin meet" viewBox="686 303  8 30" xmlns="http://www.w3.org/2000/svg">
  <path d="M 753 328  L 695 328  A 5 5 0 0 1 690 323 L 690 313  A 5 5 0 0 0 685 308 L 676 308  " stroke-width="2" stroke="#ec808d" fill="none" />
  <path d="M 751.5 324.5  A 3.5 3.5 0 0 0 748 328 A 3.5 3.5 0 0 0 751.5 331.5 A 3.5 3.5 0 0 0 755 328 A 3.5 3.5 0 0 0 751.5 324.5 Z M 677.5 304.5  A 3.5 3.5 0 0 0 674 308 A 3.5 3.5 0 0 0 677.5 311.5 A 3.5 3.5 0 0 0 681 308 A 3.5 3.5 0 0 0 677.5 304.5 Z " fill-rule="nonzero" fill="#ec808d" stroke="none" />
</svg>