<?xml version="1.0" encoding="utf-8"?>
<svg version="1.1" xmlns:xlink="http://www.w3.org/1999/xlink" width="34px" height="34px" preserveAspectRatio="xMinYMid meet" viewBox="675 130  34 32" xmlns="http://www.w3.org/2000/svg">
  <path d="M 752 127  L 705 127  A 5 5 0 0 0 700 132 L 700 141  A 5 5 0 0 1 695 146 L 692 146  " stroke-width="2" stroke="#ec808d" fill="none" />
  <path d="M 750.5 123.5  A 3.5 3.5 0 0 0 747 127 A 3.5 3.5 0 0 0 750.5 130.5 A 3.5 3.5 0 0 0 754 127 A 3.5 3.5 0 0 0 750.5 123.5 Z M 699.4 138  L 690 146  L 699.4 154  L 695.8 146  L 699.4 138  Z " fill-rule="nonzero" fill="#ec808d" stroke="none" />
</svg>