<?xml version="1.0" encoding="utf-8"?>
<svg version="1.1" xmlns:xlink="http://www.w3.org/1999/xlink" width="18px" height="10px" preserveAspectRatio="xMinYMid meet" viewBox="425 73  18 8" xmlns="http://www.w3.org/2000/svg">
  <path d="M 390 117  L 425 117  A 5 5 0 0 0 430 112 L 430 82  A 5 5 0 0 1 435 77 L 441 77  " stroke-width="2" stroke="#ec808d" fill="none" />
  <path d="M 391.5 113.5  A 3.5 3.5 0 0 0 388 117 A 3.5 3.5 0 0 0 391.5 120.5 A 3.5 3.5 0 0 0 395 117 A 3.5 3.5 0 0 0 391.5 113.5 Z M 433.6 85  L 443 77  L 433.6 69  L 437.2 77  L 433.6 85  Z " fill-rule="nonzero" fill="#ec808d" stroke="none" />
</svg>