<?xml version="1.0" encoding="utf-8"?>
<svg version="1.1" xmlns:xlink="http://www.w3.org/1999/xlink" width="78px" height="10px" preserveAspectRatio="xMinYMid meet" viewBox="1477 279  78 8" xmlns="http://www.w3.org/2000/svg">
  <path d="M 1479 283  L 1549.5 283  A 0.5 0.5 0 0 0 1550 282.5 A 0.5 0.5 0 0 1 1550.5 282 L 1577 282  " stroke-width="2" stroke="#ec808d" fill="none" />
  <path d="M 1480.5 279.5  A 3.5 3.5 0 0 0 1477 283 A 3.5 3.5 0 0 0 1480.5 286.5 A 3.5 3.5 0 0 0 1484 283 A 3.5 3.5 0 0 0 1480.5 279.5 Z M 1569.6 290  L 1579 282  L 1569.6 274  L 1573.2 282  L 1569.6 290  Z " fill-rule="nonzero" fill="#ec808d" stroke="none" />
</svg>