<?xml version="1.0" encoding="utf-8"?>
<svg version="1.1" xmlns:xlink="http://www.w3.org/1999/xlink" width="75px" height="75px" xmlns="http://www.w3.org/2000/svg">
  <g transform="matrix(1 0 0 1 -10 -819 )">
    <path d="M 47.5 819  C 68.5 819  85 835.5  85 856.5  C 85 877.5  68.5 894  47.5 894  C 26.5 894  10 877.5  10 856.5  C 10 835.5  26.5 819  47.5 819  Z " fill-rule="nonzero" fill="#e9e9e9" stroke="none" />
    <path d="M 47.5 819.5  C 68.22 819.5  84.5 835.78  84.5 856.5  C 84.5 877.22  68.22 893.5  47.5 893.5  C 26.78 893.5  10.5 877.22  10.5 856.5  C 10.5 835.78  26.78 819.5  47.5 819.5  Z " stroke-width="1" stroke="#ffffff" fill="none" />
  </g>
</svg>