<?xml version="1.0" encoding="utf-8"?>
<svg version="1.1" xmlns:xlink="http://www.w3.org/1999/xlink" width="60px" height="60px" xmlns="http://www.w3.org/2000/svg">
  <g transform="matrix(1 0 0 1 -18 -827 )">
    <path d="M 48 827  C 64.8 827  78 840.2  78 857  C 78 873.8  64.8 887  48 887  C 31.2 887  18 873.8  18 857  C 18 840.2  31.2 827  48 827  Z " fill-rule="nonzero" fill="#ffffff" stroke="none" />
    <path d="M 48 827.5  C 64.52 827.5  77.5 840.48  77.5 857  C 77.5 873.52  64.52 886.5  48 886.5  C 31.48 886.5  18.5 873.52  18.5 857  C 18.5 840.48  31.48 827.5  48 827.5  Z " stroke-width="1" stroke="#ffffff" fill="none" />
  </g>
</svg>