<?xml version="1.0" encoding="utf-8"?>
<svg version="1.1" xmlns:xlink="http://www.w3.org/1999/xlink" width="419px" height="10px" preserveAspectRatio="xMinYMid meet" viewBox="455 267  419 8" xmlns="http://www.w3.org/2000/svg">
  <path d="M 425 491  L 455 491  A 5 5 0 0 0 460 486 L 460 276  A 5 5 0 0 1 465 271 L 872 271  " stroke-width="2" stroke="#ec808d" fill="none" />
  <path d="M 426.5 487.5  A 3.5 3.5 0 0 0 423 491 A 3.5 3.5 0 0 0 426.5 494.5 A 3.5 3.5 0 0 0 430 491 A 3.5 3.5 0 0 0 426.5 487.5 Z M 864.6 279  L 874 271  L 864.6 263  L 868.2 271  L 864.6 279  Z " fill-rule="nonzero" fill="#ec808d" stroke="none" />
</svg>