<?xml version="1.0" encoding="utf-8"?>
<svg version="1.1" xmlns:xlink="http://www.w3.org/1999/xlink" width="10px" height="370px" preserveAspectRatio="xMidYMin meet" viewBox="436 555  8 370" xmlns="http://www.w3.org/2000/svg">
  <path d="M 425 560  L 435 560  A 5 5 0 0 1 440 565 L 440 915  A 5 5 0 0 1 435 920 L 245 920  A 5 5 0 0 0 240 925 L 240 934  " stroke-width="2" stroke="#ec808d" fill="none" />
  <path d="M 426.5 556.5  A 3.5 3.5 0 0 0 423 560 A 3.5 3.5 0 0 0 426.5 563.5 A 3.5 3.5 0 0 0 430 560 A 3.5 3.5 0 0 0 426.5 556.5 Z M 232 926.6  L 240 936  L 248 926.6  L 240 930.2  L 232 926.6  Z " fill-rule="nonzero" fill="#ec808d" stroke="none" />
</svg>