<?xml version="1.0" encoding="utf-8"?>
<svg version="1.1" xmlns:xlink="http://www.w3.org/1999/xlink" width="350px" height="1266px" xmlns="http://www.w3.org/2000/svg">
  <g transform="matrix(1 0 0 1 -73 -60 )">
    <path d="M 74 62  A 1 1 0 0 1 75 61 L 421 61  A 1 1 0 0 1 422 62 L 422 1324  A 1 1 0 0 1 421 1325 L 75 1325  A 1 1 0 0 1 74 1324 L 74 62  Z " fill-rule="nonzero" fill="#ffffff" stroke="none" fill-opacity="0.317647058823529" />
    <path d="M 73.5 62  A 1.5 1.5 0 0 1 75 60.5 L 421 60.5  A 1.5 1.5 0 0 1 422.5 62 L 422.5 1324  A 1.5 1.5 0 0 1 421 1325.5 L 75 1325.5  A 1.5 1.5 0 0 1 73.5 1324 L 73.5 62  Z " stroke-width="1" stroke="#d4d4d4" fill="none" stroke-opacity="0.996078431372549" />
  </g>
</svg>