<?xml version="1.0" encoding="utf-8"?>
<svg version="1.1" xmlns:xlink="http://www.w3.org/1999/xlink" width="243px" height="10px" preserveAspectRatio="xMinYMid meet" viewBox="412 291  243 8" xmlns="http://www.w3.org/2000/svg">
  <path d="M 414 295  L 645 295  A 5 5 0 0 1 650 300 L 650 569  A 5 5 0 0 0 655 574 L 672 574  " stroke-width="2" stroke="#ec808d" fill="none" />
  <path d="M 415.5 291.5  A 3.5 3.5 0 0 0 412 295 A 3.5 3.5 0 0 0 415.5 298.5 A 3.5 3.5 0 0 0 419 295 A 3.5 3.5 0 0 0 415.5 291.5 Z M 664.6 582  L 674 574  L 664.6 566  L 668.2 574  L 664.6 582  Z " fill-rule="nonzero" fill="#ec808d" stroke="none" />
</svg>