<?xml version="1.0" encoding="utf-8"?>
<svg version="1.1" xmlns:xlink="http://www.w3.org/1999/xlink" width="10px" height="26px" preserveAspectRatio="xMidYMin meet" viewBox="476 945  8 26" xmlns="http://www.w3.org/2000/svg">
  <path d="M 425 950  L 475 950  A 5 5 0 0 1 480 955 L 480 961  A 5 5 0 0 0 485 966 L 496 966  " stroke-width="2" stroke="#ec808d" fill="none" />
  <path d="M 426.5 946.5  A 3.5 3.5 0 0 0 423 950 A 3.5 3.5 0 0 0 426.5 953.5 A 3.5 3.5 0 0 0 430 950 A 3.5 3.5 0 0 0 426.5 946.5 Z M 488.6 974  L 498 966  L 488.6 958  L 492.2 966  L 488.6 974  Z " fill-rule="nonzero" fill="#ec808d" stroke="none" />
</svg>