<?xml version="1.0" encoding="utf-8"?>
<svg version="1.1" xmlns:xlink="http://www.w3.org/1999/xlink" width="10px" height="106px" preserveAspectRatio="xMidYMin meet" viewBox="56 45  8 106" xmlns="http://www.w3.org/2000/svg">
  <defs>
    <mask fill="white" id="clip60">
      <path d="M 313.5 37  L 410.5 37  L 410.5 62  L 313.5 62  Z M 57 37  L 740 37  L 740 149  L 57 149  Z " fill-rule="evenodd" />
    </mask>
  </defs>
  <path d="M 86 146  L 65 146  A 5 5 0 0 1 60 141 L 60 55  A 5 5 0 0 1 65 50 L 715 50  A 5 5 0 0 1 720 55 L 720 100  A 5 5 0 0 0 725 105 L 728 105  " stroke-width="2" stroke="#ec808d" fill="none" mask="url(#clip60)" />
  <path d="M 722.892893218813 100.707106781187  L 727.185786437627 105  L 722.892893218813 109.292893218813  L 724.307106781187 110.707106781187  L 729.307106781187 105.707106781187  L 730.014213562373 105  L 729.307106781187 104.292893218813  L 724.307106781187 99.2928932188134  L 722.892893218813 100.707106781187  Z " fill-rule="nonzero" fill="#ec808d" stroke="none" mask="url(#clip60)" />
</svg>