<?xml version="1.0" encoding="utf-8"?>
<svg version="1.1" xmlns:xlink="http://www.w3.org/1999/xlink" width="10px" height="133px" preserveAspectRatio="xMidYMin meet" viewBox="822 675  8 133" xmlns="http://www.w3.org/2000/svg">
  <defs>
    <mask fill="white" id="clip66">
      <path d="M 658.5 790  L 717.5 790  L 717.5 815  L 658.5 815  Z M 406 665  L 836 665  L 836 820  L 406 820  Z " fill-rule="evenodd" />
    </mask>
  </defs>
  <path d="M 826 677  L 826 798  A 5 5 0 0 1 821 803 L 425 803  " stroke-width="2" stroke="#ec808d" fill="none" mask="url(#clip66)" />
  <path d="M 826 675  A 3.5 3.5 0 0 0 822.5 678.5 A 3.5 3.5 0 0 0 826 682 A 3.5 3.5 0 0 0 829.5 678.5 A 3.5 3.5 0 0 0 826 675 Z M 432.4 795  L 423 803  L 432.4 811  L 428.8 803  L 432.4 795  Z " fill-rule="nonzero" fill="#ec808d" stroke="none" mask="url(#clip66)" />
</svg>