<?xml version="1.0" encoding="utf-8"?>
<svg version="1.1" xmlns:xlink="http://www.w3.org/1999/xlink" width="10px" height="87px" preserveAspectRatio="xMidYMin meet" viewBox="802 1125  8 87" xmlns="http://www.w3.org/2000/svg">
  <defs>
    <mask fill="white" id="clip71">
      <path d="M 703.5 1118  L 800.5 1118  L 800.5 1143  L 703.5 1143  Z M 624 1118  L 823 1118  L 823 1229  L 624 1229  Z " fill-rule="evenodd" />
    </mask>
  </defs>
  <path d="M 634 1147  L 634 1135  A 5 5 0 0 1 639 1130 L 801 1130  A 5 5 0 0 1 806 1135 L 806 1210  " stroke-width="2" stroke="#ec808d" fill="none" mask="url(#clip71)" />
  <path d="M 634 1142  A 3.5 3.5 0 0 0 630.5 1145.5 A 3.5 3.5 0 0 0 634 1149 A 3.5 3.5 0 0 0 637.5 1145.5 A 3.5 3.5 0 0 0 634 1142 Z M 798 1202.6  L 806 1212  L 814 1202.6  L 806 1206.2  L 798 1202.6  Z " fill-rule="nonzero" fill="#ec808d" stroke="none" mask="url(#clip71)" />
</svg>