<?xml version="1.0" encoding="utf-8"?>
<svg version="1.1" xmlns:xlink="http://www.w3.org/1999/xlink" width="77px" height="27px" xmlns="http://www.w3.org/2000/svg">
  <g transform="matrix(1 0 0 1 -777 -477 )">
    <path d="M 778 479  A 1 1 0 0 1 779 478 L 852 478  A 1 1 0 0 1 853 479 L 853 502  A 1 1 0 0 1 852 503 L 779 503  A 1 1 0 0 1 778 502 L 778 479  Z " fill-rule="nonzero" fill="#ffffff" stroke="none" />
    <path d="M 777.5 479  A 1.5 1.5 0 0 1 779 477.5 L 852 477.5  A 1.5 1.5 0 0 1 853.5 479 L 853.5 502  A 1.5 1.5 0 0 1 852 503.5 L 779 503.5  A 1.5 1.5 0 0 1 777.5 502 L 777.5 479  Z " stroke-width="1" stroke="#9e9e9e" fill="none" stroke-opacity="0.603921568627451" />
  </g>
</svg>