<?xml version="1.0" encoding="utf-8"?>
<svg version="1.1" xmlns:xlink="http://www.w3.org/1999/xlink" width="350px" height="1019px" xmlns="http://www.w3.org/2000/svg">
  <g transform="matrix(1 0 0 1 -512 -61 )">
    <path d="M 513 63  A 1 1 0 0 1 514 62 L 860 62  A 1 1 0 0 1 861 63 L 861 1078  A 1 1 0 0 1 860 1079 L 514 1079  A 1 1 0 0 1 513 1078 L 513 63  Z " fill-rule="nonzero" fill="#ffffff" stroke="none" fill-opacity="0.317647058823529" />
    <path d="M 512.5 63  A 1.5 1.5 0 0 1 514 61.5 L 860 61.5  A 1.5 1.5 0 0 1 861.5 63 L 861.5 1078  A 1.5 1.5 0 0 1 860 1079.5 L 514 1079.5  A 1.5 1.5 0 0 1 512.5 1078 L 512.5 63  Z " stroke-width="1" stroke="#d4d4d4" fill="none" stroke-opacity="0.996078431372549" />
  </g>
</svg>