<?xml version="1.0" encoding="utf-8"?>
<svg version="1.1" xmlns:xlink="http://www.w3.org/1999/xlink" width="23px" height="10px" preserveAspectRatio="xMinYMid meet" viewBox="802 767  23 8" xmlns="http://www.w3.org/2000/svg">
  <path d="M 425 580  L 435 580  A 5 5 0 0 1 440 585 L 440 745  A 5 5 0 0 0 445 750 L 815 750  A 5 5 0 0 1 820 755 L 820 766  A 5 5 0 0 1 815 771 L 804 771  " stroke-width="2" stroke="#ec808d" fill="none" />
  <path d="M 426.5 576.5  A 3.5 3.5 0 0 0 423 580 A 3.5 3.5 0 0 0 426.5 583.5 A 3.5 3.5 0 0 0 430 580 A 3.5 3.5 0 0 0 426.5 576.5 Z M 811.4 763  L 802 771  L 811.4 779  L 807.8 771  L 811.4 763  Z " fill-rule="nonzero" fill="#ec808d" stroke="none" />
</svg>