<?xml version="1.0" encoding="utf-8"?>
<svg version="1.1" xmlns:xlink="http://www.w3.org/1999/xlink" width="10px" height="26px" preserveAspectRatio="xMidYMin meet" viewBox="925 128  8 26" xmlns="http://www.w3.org/2000/svg">
  <defs>
    <mask fill="white" id="clip45">
      <path d="M 855 106  L 975 106  L 975 161  L 855 161  Z M 828 106  L 1004 106  L 1004 161  L 828 161  Z " fill-rule="evenodd" />
    </mask>
  </defs>
  <path d="M 831 139  L 831 138  A 5 5 0 0 1 836 133 L 924 133  A 5 5 0 0 1 929 138 L 929 144  A 5 5 0 0 0 934 149 L 992 149  " stroke-width="2" stroke="#ec808d" fill="none" mask="url(#clip45)" />
  <path d="M 986.892893218813 144.707106781187  L 991.185786437627 149  L 986.892893218813 153.292893218813  L 988.307106781187 154.707106781187  L 993.307106781187 149.707106781187  L 994.014213562373 149  L 993.307106781187 148.292893218813  L 988.307106781187 143.292893218813  L 986.892893218813 144.707106781187  Z " fill-rule="nonzero" fill="#ec808d" stroke="none" mask="url(#clip45)" />
</svg>