<?xml version="1.0" encoding="utf-8"?>
<svg version="1.1" xmlns:xlink="http://www.w3.org/1999/xlink" width="10px" height="70px" preserveAspectRatio="xMidYMin meet" viewBox="654 665  8 70" xmlns="http://www.w3.org/2000/svg">
  <defs>
    <mask fill="white" id="clip52">
      <path d="M 414 710  L 534 710  L 534 750  L 414 750  Z M 341 665  L 661 665  L 661 865  L 341 865  Z " fill-rule="evenodd" />
    </mask>
  </defs>
  <path d="M 658 665  L 658 725  A 5 5 0 0 1 653 730 L 445 730  A 5 5 0 0 0 440 735 L 440 785  A 5 5 0 0 1 435 790 L 356 790  A 5 5 0 0 0 351 795 L 351 853  " stroke-width="2" stroke="#ec808d" fill="none" mask="url(#clip52)" />
  <path d="M 355.292893218813 847.892893218813  L 351 852.185786437627  L 346.707106781187 847.892893218813  L 345.292893218813 849.307106781187  L 350.292893218813 854.307106781187  L 351 855.014213562373  L 351.707106781187 854.307106781187  L 356.707106781187 849.307106781187  L 355.292893218813 847.892893218813  Z " fill-rule="nonzero" fill="#ec808d" stroke="none" mask="url(#clip52)" />
</svg>