<?xml version="1.0" encoding="utf-8"?>
<svg version="1.1" xmlns:xlink="http://www.w3.org/1999/xlink" width="12px" height="12px" viewBox="135 505.5  12 12" xmlns="http://www.w3.org/2000/svg">
  <path d="M 141 505.5  C 144.36 505.5  147 508.14  147 511.5  C 147 514.86  144.36 517.5  141 517.5  C 137.64 517.5  135 514.86  135 511.5  C 135 508.14  137.64 505.5  141 505.5  Z " fill-rule="nonzero" fill="#ffffff" stroke="none" />
  <path d="M 141 506  C 144.08 506  146.5 508.42  146.5 511.5  C 146.5 514.58  144.08 517  141 517  C 137.92 517  135.5 514.58  135.5 511.5  C 135.5 508.42  137.92 506  141 506  Z " stroke-width="1" stroke="#797979" fill="none" />
  <path d="M 141 514.5  C 139.32 514.5  138 513.18  138 511.5  C 138 509.82  139.32 508.5  141 508.5  C 142.68 508.5  144 509.82  144 511.5  C 144 513.18  142.68 514.5  141 514.5  " fill-rule="nonzero" fill="#797979" stroke="none" />
</svg>