<?xml version="1.0" encoding="utf-8"?>
<svg version="1.1" xmlns:xlink="http://www.w3.org/1999/xlink" width="12px" height="12px" viewBox="277 505.5  12 12" xmlns="http://www.w3.org/2000/svg">
  <path d="M 283 505.5  C 286.36 505.5  289 508.14  289 511.5  C 289 514.86  286.36 517.5  283 517.5  C 279.64 517.5  277 514.86  277 511.5  C 277 508.14  279.64 505.5  283 505.5  Z " fill-rule="nonzero" fill="#ffffff" stroke="none" />
  <path d="M 283 506  C 286.08 506  288.5 508.42  288.5 511.5  C 288.5 514.58  286.08 517  283 517  C 279.92 517  277.5 514.58  277.5 511.5  C 277.5 508.42  279.92 506  283 506  Z " stroke-width="1" stroke="#797979" fill="none" />
  <path d="M 283 514.5  C 281.32 514.5  280 513.18  280 511.5  C 280 509.82  281.32 508.5  283 508.5  C 284.68 508.5  286 509.82  286 511.5  C 286 513.18  284.68 514.5  283 514.5  " fill-rule="nonzero" fill="#797979" stroke="none" />
</svg>