<?xml version="1.0" encoding="utf-8"?>
<svg version="1.1" xmlns:xlink="http://www.w3.org/1999/xlink" width="12px" height="12px" viewBox="244 1688.5  12 12" xmlns="http://www.w3.org/2000/svg">
  <path d="M 250 1688.5  C 253.36 1688.5  256 1691.14  256 1694.5  C 256 1697.86  253.36 1700.5  250 1700.5  C 246.64 1700.5  244 1697.86  244 1694.5  C 244 1691.14  246.64 1688.5  250 1688.5  Z " fill-rule="nonzero" fill="#ffffff" stroke="none" />
  <path d="M 250 1689  C 253.08 1689  255.5 1691.42  255.5 1694.5  C 255.5 1697.58  253.08 1700  250 1700  C 246.92 1700  244.5 1697.58  244.5 1694.5  C 244.5 1691.42  246.92 1689  250 1689  Z " stroke-width="1" stroke="#797979" fill="none" />
  <path d="M 250 1697.5  C 248.32 1697.5  247 1696.18  247 1694.5  C 247 1692.82  248.32 1691.5  250 1691.5  C 251.68 1691.5  253 1692.82  253 1694.5  C 253 1696.18  251.68 1697.5  250 1697.5  " fill-rule="nonzero" fill="#797979" stroke="none" />
</svg>