<?xml version="1.0" encoding="utf-8"?>
<svg version="1.1" xmlns:xlink="http://www.w3.org/1999/xlink" width="12px" height="12px" viewBox="180 1782.5  12 12" xmlns="http://www.w3.org/2000/svg">
  <path d="M 186 1782.5  C 189.36 1782.5  192 1785.14  192 1788.5  C 192 1791.86  189.36 1794.5  186 1794.5  C 182.64 1794.5  180 1791.86  180 1788.5  C 180 1785.14  182.64 1782.5  186 1782.5  Z " fill-rule="nonzero" fill="#ffffff" stroke="none" />
  <path d="M 186 1783  C 189.08 1783  191.5 1785.42  191.5 1788.5  C 191.5 1791.58  189.08 1794  186 1794  C 182.92 1794  180.5 1791.58  180.5 1788.5  C 180.5 1785.42  182.92 1783  186 1783  Z " stroke-width="1" stroke="#797979" fill="none" />
  <path d="M 186 1791.5  C 184.32 1791.5  183 1790.18  183 1788.5  C 183 1786.82  184.32 1785.5  186 1785.5  C 187.68 1785.5  189 1786.82  189 1788.5  C 189 1790.18  187.68 1791.5  186 1791.5  " fill-rule="nonzero" fill="#797979" stroke="none" />
</svg>