<?xml version="1.0" encoding="utf-8"?>
<svg version="1.1" xmlns:xlink="http://www.w3.org/1999/xlink" width="12px" height="12px" viewBox="244 1969.5  12 12" xmlns="http://www.w3.org/2000/svg">
  <path d="M 250 1969.5  C 253.36 1969.5  256 1972.14  256 1975.5  C 256 1978.86  253.36 1981.5  250 1981.5  C 246.64 1981.5  244 1978.86  244 1975.5  C 244 1972.14  246.64 1969.5  250 1969.5  Z " fill-rule="nonzero" fill="#ffffff" stroke="none" />
  <path d="M 250 1970  C 253.08 1970  255.5 1972.42  255.5 1975.5  C 255.5 1978.58  253.08 1981  250 1981  C 246.92 1981  244.5 1978.58  244.5 1975.5  C 244.5 1972.42  246.92 1970  250 1970  Z " stroke-width="1" stroke="#797979" fill="none" />
  <path d="M 250 1978.5  C 248.32 1978.5  247 1977.18  247 1975.5  C 247 1973.82  248.32 1972.5  250 1972.5  C 251.68 1972.5  253 1973.82  253 1975.5  C 253 1977.18  251.68 1978.5  250 1978.5  " fill-rule="nonzero" fill="#797979" stroke="none" />
</svg>