<?xml version="1.0" encoding="utf-8"?>
<svg version="1.1" xmlns:xlink="http://www.w3.org/1999/xlink" width="12px" height="12px" viewBox="179 2019.5  12 12" xmlns="http://www.w3.org/2000/svg">
  <path d="M 185 2019.5  C 188.36 2019.5  191 2022.14  191 2025.5  C 191 2028.86  188.36 2031.5  185 2031.5  C 181.64 2031.5  179 2028.86  179 2025.5  C 179 2022.14  181.64 2019.5  185 2019.5  Z " fill-rule="nonzero" fill="#ffffff" stroke="none" />
  <path d="M 185 2020  C 188.08 2020  190.5 2022.42  190.5 2025.5  C 190.5 2028.58  188.08 2031  185 2031  C 181.92 2031  179.5 2028.58  179.5 2025.5  C 179.5 2022.42  181.92 2020  185 2020  Z " stroke-width="1" stroke="#797979" fill="none" />
  <path d="M 185 2028.5  C 183.32 2028.5  182 2027.18  182 2025.5  C 182 2023.82  183.32 2022.5  185 2022.5  C 186.68 2022.5  188 2023.82  188 2025.5  C 188 2027.18  186.68 2028.5  185 2028.5  " fill-rule="nonzero" fill="#797979" stroke="none" />
</svg>