<?xml version="1.0" encoding="utf-8"?>
<svg version="1.1" xmlns:xlink="http://www.w3.org/1999/xlink" width="12px" height="12px" viewBox="244 1738.5  12 12" xmlns="http://www.w3.org/2000/svg">
  <path d="M 250 1738.5  C 253.36 1738.5  256 1741.14  256 1744.5  C 256 1747.86  253.36 1750.5  250 1750.5  C 246.64 1750.5  244 1747.86  244 1744.5  C 244 1741.14  246.64 1738.5  250 1738.5  Z " fill-rule="nonzero" fill="#ffffff" stroke="none" />
  <path d="M 250 1739  C 253.08 1739  255.5 1741.42  255.5 1744.5  C 255.5 1747.58  253.08 1750  250 1750  C 246.92 1750  244.5 1747.58  244.5 1744.5  C 244.5 1741.42  246.92 1739  250 1739  Z " stroke-width="1" stroke="#797979" fill="none" />
  <path d="M 250 1747.5  C 248.32 1747.5  247 1746.18  247 1744.5  C 247 1742.82  248.32 1741.5  250 1741.5  C 251.68 1741.5  253 1742.82  253 1744.5  C 253 1746.18  251.68 1747.5  250 1747.5  " fill-rule="nonzero" fill="#797979" stroke="none" />
</svg>