<?xml version="1.0" encoding="utf-8"?>
<svg version="1.1" xmlns:xlink="http://www.w3.org/1999/xlink" width="12px" height="12px" viewBox="268 2019.5  12 12" xmlns="http://www.w3.org/2000/svg">
  <path d="M 274 2019.5  C 277.36 2019.5  280 2022.14  280 2025.5  C 280 2028.86  277.36 2031.5  274 2031.5  C 270.64 2031.5  268 2028.86  268 2025.5  C 268 2022.14  270.64 2019.5  274 2019.5  Z " fill-rule="nonzero" fill="#ffffff" stroke="none" />
  <path d="M 274 2020  C 277.08 2020  279.5 2022.42  279.5 2025.5  C 279.5 2028.58  277.08 2031  274 2031  C 270.92 2031  268.5 2028.58  268.5 2025.5  C 268.5 2022.42  270.92 2020  274 2020  Z " stroke-width="1" stroke="#797979" fill="none" />
  <path d="M 274 2028.5  C 272.32 2028.5  271 2027.18  271 2025.5  C 271 2023.82  272.32 2022.5  274 2022.5  C 275.68 2022.5  277 2023.82  277 2025.5  C 277 2027.18  275.68 2028.5  274 2028.5  " fill-rule="nonzero" fill="#797979" stroke="none" />
</svg>