<?xml version="1.0" encoding="utf-8"?>
<svg version="1.1" xmlns:xlink="http://www.w3.org/1999/xlink" width="12px" height="12px" viewBox="303 1738.5  12 12" xmlns="http://www.w3.org/2000/svg">
  <path d="M 309 1738.5  C 312.36 1738.5  315 1741.14  315 1744.5  C 315 1747.86  312.36 1750.5  309 1750.5  C 305.64 1750.5  303 1747.86  303 1744.5  C 303 1741.14  305.64 1738.5  309 1738.5  Z " fill-rule="nonzero" fill="#ffffff" stroke="none" />
  <path d="M 309 1739  C 312.08 1739  314.5 1741.42  314.5 1744.5  C 314.5 1747.58  312.08 1750  309 1750  C 305.92 1750  303.5 1747.58  303.5 1744.5  C 303.5 1741.42  305.92 1739  309 1739  Z " stroke-width="1" stroke="#797979" fill="none" />
  <path d="M 309 1747.5  C 307.32 1747.5  306 1746.18  306 1744.5  C 306 1742.82  307.32 1741.5  309 1741.5  C 310.68 1741.5  312 1742.82  312 1744.5  C 312 1746.18  310.68 1747.5  309 1747.5  " fill-rule="nonzero" fill="#797979" stroke="none" />
</svg>