<?xml version="1.0" encoding="utf-8"?>
<svg version="1.1" xmlns:xlink="http://www.w3.org/1999/xlink" width="12px" height="12px" viewBox="269 2051.5  12 12" xmlns="http://www.w3.org/2000/svg">
  <path d="M 275 2051.5  C 278.36 2051.5  281 2054.14  281 2057.5  C 281 2060.86  278.36 2063.5  275 2063.5  C 271.64 2063.5  269 2060.86  269 2057.5  C 269 2054.14  271.64 2051.5  275 2051.5  Z " fill-rule="nonzero" fill="#ffffff" stroke="none" />
  <path d="M 275 2052  C 278.08 2052  280.5 2054.42  280.5 2057.5  C 280.5 2060.58  278.08 2063  275 2063  C 271.92 2063  269.5 2060.58  269.5 2057.5  C 269.5 2054.42  271.92 2052  275 2052  Z " stroke-width="1" stroke="#797979" fill="none" />
  <path d="M 275 2060.5  C 273.32 2060.5  272 2059.18  272 2057.5  C 272 2055.82  273.32 2054.5  275 2054.5  C 276.68 2054.5  278 2055.82  278 2057.5  C 278 2059.18  276.68 2060.5  275 2060.5  " fill-rule="nonzero" fill="#797979" stroke="none" />
</svg>