<?xml version="1.0" encoding="utf-8"?>
<svg version="1.1" xmlns:xlink="http://www.w3.org/1999/xlink" width="12px" height="12px" viewBox="250 1916.5  12 12" xmlns="http://www.w3.org/2000/svg">
  <path d="M 256 1916.5  C 259.36 1916.5  262 1919.14  262 1922.5  C 262 1925.86  259.36 1928.5  256 1928.5  C 252.64 1928.5  250 1925.86  250 1922.5  C 250 1919.14  252.64 1916.5  256 1916.5  Z " fill-rule="nonzero" fill="#ffffff" stroke="none" />
  <path d="M 256 1917  C 259.08 1917  261.5 1919.42  261.5 1922.5  C 261.5 1925.58  259.08 1928  256 1928  C 252.92 1928  250.5 1925.58  250.5 1922.5  C 250.5 1919.42  252.92 1917  256 1917  Z " stroke-width="1" stroke="#797979" fill="none" />
  <path d="M 256 1925.5  C 254.32 1925.5  253 1924.18  253 1922.5  C 253 1920.82  254.32 1919.5  256 1919.5  C 257.68 1919.5  259 1920.82  259 1922.5  C 259 1924.18  257.68 1925.5  256 1925.5  " fill-rule="nonzero" fill="#797979" stroke="none" />
</svg>