<?xml version="1.0" encoding="utf-8"?>
<svg version="1.1" xmlns:xlink="http://www.w3.org/1999/xlink" width="12px" height="12px" viewBox="244 1782.5  12 12" xmlns="http://www.w3.org/2000/svg">
  <path d="M 250 1782.5  C 253.36 1782.5  256 1785.14  256 1788.5  C 256 1791.86  253.36 1794.5  250 1794.5  C 246.64 1794.5  244 1791.86  244 1788.5  C 244 1785.14  246.64 1782.5  250 1782.5  Z " fill-rule="nonzero" fill="#ffffff" stroke="none" />
  <path d="M 250 1783  C 253.08 1783  255.5 1785.42  255.5 1788.5  C 255.5 1791.58  253.08 1794  250 1794  C 246.92 1794  244.5 1791.58  244.5 1788.5  C 244.5 1785.42  246.92 1783  250 1783  Z " stroke-width="1" stroke="#797979" fill="none" />
  <path d="M 250 1791.5  C 248.32 1791.5  247 1790.18  247 1788.5  C 247 1786.82  248.32 1785.5  250 1785.5  C 251.68 1785.5  253 1786.82  253 1788.5  C 253 1790.18  251.68 1791.5  250 1791.5  " fill-rule="nonzero" fill="#797979" stroke="none" />
</svg>