<?xml version="1.0" encoding="utf-8"?>
<svg version="1.1" xmlns:xlink="http://www.w3.org/1999/xlink" width="12px" height="12px" viewBox="244 1831.5  12 12" xmlns="http://www.w3.org/2000/svg">
  <path d="M 250 1831.5  C 253.36 1831.5  256 1834.14  256 1837.5  C 256 1840.86  253.36 1843.5  250 1843.5  C 246.64 1843.5  244 1840.86  244 1837.5  C 244 1834.14  246.64 1831.5  250 1831.5  Z " fill-rule="nonzero" fill="#ffffff" stroke="none" />
  <path d="M 250 1832  C 253.08 1832  255.5 1834.42  255.5 1837.5  C 255.5 1840.58  253.08 1843  250 1843  C 246.92 1843  244.5 1840.58  244.5 1837.5  C 244.5 1834.42  246.92 1832  250 1832  Z " stroke-width="1" stroke="#797979" fill="none" />
  <path d="M 250 1840.5  C 248.32 1840.5  247 1839.18  247 1837.5  C 247 1835.82  248.32 1834.5  250 1834.5  C 251.68 1834.5  253 1835.82  253 1837.5  C 253 1839.18  251.68 1840.5  250 1840.5  " fill-rule="nonzero" fill="#797979" stroke="none" />
</svg>