<?xml version="1.0" encoding="utf-8"?>
<svg version="1.1" xmlns:xlink="http://www.w3.org/1999/xlink" width="12px" height="12px" viewBox="249 2495.5  12 12" xmlns="http://www.w3.org/2000/svg">
  <path d="M 255 2495.5  C 258.36 2495.5  261 2498.14  261 2501.5  C 261 2504.86  258.36 2507.5  255 2507.5  C 251.64 2507.5  249 2504.86  249 2501.5  C 249 2498.14  251.64 2495.5  255 2495.5  Z " fill-rule="nonzero" fill="#ffffff" stroke="none" />
  <path d="M 255 2496  C 258.08 2496  260.5 2498.42  260.5 2501.5  C 260.5 2504.58  258.08 2507  255 2507  C 251.92 2507  249.5 2504.58  249.5 2501.5  C 249.5 2498.42  251.92 2496  255 2496  Z " stroke-width="1" stroke="#797979" fill="none" />
  <path d="M 255 2504.5  C 253.32 2504.5  252 2503.18  252 2501.5  C 252 2499.82  253.32 2498.5  255 2498.5  C 256.68 2498.5  258 2499.82  258 2501.5  C 258 2503.18  256.68 2504.5  255 2504.5  " fill-rule="nonzero" fill="#797979" stroke="none" />
</svg>