<?xml version="1.0" encoding="utf-8"?>
<svg version="1.1" xmlns:xlink="http://www.w3.org/1999/xlink" width="12px" height="12px" viewBox="180 1881.5  12 12" xmlns="http://www.w3.org/2000/svg">
  <path d="M 186 1881.5  C 189.36 1881.5  192 1884.14  192 1887.5  C 192 1890.86  189.36 1893.5  186 1893.5  C 182.64 1893.5  180 1890.86  180 1887.5  C 180 1884.14  182.64 1881.5  186 1881.5  Z " fill-rule="nonzero" fill="#ffffff" stroke="none" />
  <path d="M 186 1882  C 189.08 1882  191.5 1884.42  191.5 1887.5  C 191.5 1890.58  189.08 1893  186 1893  C 182.92 1893  180.5 1890.58  180.5 1887.5  C 180.5 1884.42  182.92 1882  186 1882  Z " stroke-width="1" stroke="#797979" fill="none" />
  <path d="M 186 1890.5  C 184.32 1890.5  183 1889.18  183 1887.5  C 183 1885.82  184.32 1884.5  186 1884.5  C 187.68 1884.5  189 1885.82  189 1887.5  C 189 1889.18  187.68 1890.5  186 1890.5  " fill-rule="nonzero" fill="#797979" stroke="none" />
</svg>