<?xml version="1.0" encoding="utf-8"?>
<svg version="1.1" xmlns:xlink="http://www.w3.org/1999/xlink" width="12px" height="12px" viewBox="250 1881.5  12 12" xmlns="http://www.w3.org/2000/svg">
  <path d="M 256 1881.5  C 259.36 1881.5  262 1884.14  262 1887.5  C 262 1890.86  259.36 1893.5  256 1893.5  C 252.64 1893.5  250 1890.86  250 1887.5  C 250 1884.14  252.64 1881.5  256 1881.5  Z " fill-rule="nonzero" fill="#ffffff" stroke="none" />
  <path d="M 256 1882  C 259.08 1882  261.5 1884.42  261.5 1887.5  C 261.5 1890.58  259.08 1893  256 1893  C 252.92 1893  250.5 1890.58  250.5 1887.5  C 250.5 1884.42  252.92 1882  256 1882  Z " stroke-width="1" stroke="#797979" fill="none" />
  <path d="M 256 1890.5  C 254.32 1890.5  253 1889.18  253 1887.5  C 253 1885.82  254.32 1884.5  256 1884.5  C 257.68 1884.5  259 1885.82  259 1887.5  C 259 1889.18  257.68 1890.5  256 1890.5  " fill-rule="nonzero" fill="#797979" stroke="none" />
</svg>