<?xml version="1.0" encoding="utf-8"?>
<svg version="1.1" xmlns:xlink="http://www.w3.org/1999/xlink" width="12px" height="12px" viewBox="185 2495.5  12 12" xmlns="http://www.w3.org/2000/svg">
  <path d="M 191 2495.5  C 194.36 2495.5  197 2498.14  197 2501.5  C 197 2504.86  194.36 2507.5  191 2507.5  C 187.64 2507.5  185 2504.86  185 2501.5  C 185 2498.14  187.64 2495.5  191 2495.5  Z " fill-rule="nonzero" fill="#ffffff" stroke="none" />
  <path d="M 191 2496  C 194.08 2496  196.5 2498.42  196.5 2501.5  C 196.5 2504.58  194.08 2507  191 2507  C 187.92 2507  185.5 2504.58  185.5 2501.5  C 185.5 2498.42  187.92 2496  191 2496  Z " stroke-width="1" stroke="#797979" fill="none" />
  <path d="M 191 2504.5  C 189.32 2504.5  188 2503.18  188 2501.5  C 188 2499.82  189.32 2498.5  191 2498.5  C 192.68 2498.5  194 2499.82  194 2501.5  C 194 2503.18  192.68 2504.5  191 2504.5  " fill-rule="nonzero" fill="#797979" stroke="none" />
</svg>