<?xml version="1.0" encoding="utf-8"?>
<svg version="1.1" xmlns:xlink="http://www.w3.org/1999/xlink" width="10px" height="531px" preserveAspectRatio="xMidYMin meet" viewBox="859 247  8 531" xmlns="http://www.w3.org/2000/svg">
  <defs>
    <mask fill="white" id="clip76">
      <path d="M 803 532  L 923 532  L 923 572  L 803 572  Z M 770 242  L 923 242  L 923 783  L 770 783  Z " fill-rule="evenodd" />
    </mask>
  </defs>
  <path d="M 782 773  L 858 773  A 5 5 0 0 0 863 768 L 863 254.5  A 2.5 2.5 0 0 1 865.5 252 L 866 252  " stroke-width="2" stroke="#ec808d" fill="none" mask="url(#clip76)" />
  <path d="M 783.5 769.5  A 3.5 3.5 0 0 0 780 773 A 3.5 3.5 0 0 0 783.5 776.5 A 3.5 3.5 0 0 0 787 773 A 3.5 3.5 0 0 0 783.5 769.5 Z M 864.526454144228 248.697347514993  A 3.5 3.5 0 0 0 861.026454144228 252.197347514993 A 3.5 3.5 0 0 0 864.526454144228 255.697347514993 A 3.5 3.5 0 0 0 868.026454144228 252.197347514993 A 3.5 3.5 0 0 0 864.526454144228 248.697347514993 Z " fill-rule="nonzero" fill="#ec808d" stroke="none" mask="url(#clip76)" />
</svg>