<?xml version="1.0" encoding="utf-8"?>
<svg version="1.1" xmlns:xlink="http://www.w3.org/1999/xlink" width="12px" height="12px" viewBox="140 183.5  12 12" xmlns="http://www.w3.org/2000/svg">
  <path d="M 146 183.5  C 149.36 183.5  152 186.14  152 189.5  C 152 192.86  149.36 195.5  146 195.5  C 142.64 195.5  140 192.86  140 189.5  C 140 186.14  142.64 183.5  146 183.5  Z " fill-rule="nonzero" fill="#ffffff" stroke="none" />
  <path d="M 146 184  C 149.08 184  151.5 186.42  151.5 189.5  C 151.5 192.58  149.08 195  146 195  C 142.92 195  140.5 192.58  140.5 189.5  C 140.5 186.42  142.92 184  146 184  Z " stroke-width="1" stroke="#797979" fill="none" />
  <path d="M 146 192.5  C 144.32 192.5  143 191.18  143 189.5  C 143 187.82  144.32 186.5  146 186.5  C 147.68 186.5  149 187.82  149 189.5  C 149 191.18  147.68 192.5  146 192.5  " fill-rule="nonzero" fill="#797979" stroke="none" />
</svg>