<?xml version="1.0" encoding="utf-8"?>
<svg version="1.1" xmlns:xlink="http://www.w3.org/1999/xlink" width="12px" height="12px" viewBox="139 183.5  12 12" xmlns="http://www.w3.org/2000/svg">
  <path d="M 145 183.5  C 148.36 183.5  151 186.14  151 189.5  C 151 192.86  148.36 195.5  145 195.5  C 141.64 195.5  139 192.86  139 189.5  C 139 186.14  141.64 183.5  145 183.5  Z " fill-rule="nonzero" fill="#ffffff" stroke="none" />
  <path d="M 145 184  C 148.08 184  150.5 186.42  150.5 189.5  C 150.5 192.58  148.08 195  145 195  C 141.92 195  139.5 192.58  139.5 189.5  C 139.5 186.42  141.92 184  145 184  Z " stroke-width="1" stroke="#797979" fill="none" />
  <path d="M 145 192.5  C 143.32 192.5  142 191.18  142 189.5  C 142 187.82  143.32 186.5  145 186.5  C 146.68 186.5  148 187.82  148 189.5  C 148 191.18  146.68 192.5  145 192.5  " fill-rule="nonzero" fill="#797979" stroke="none" />
</svg>