<?xml version="1.0" encoding="utf-8"?>
<svg version="1.1" xmlns:xlink="http://www.w3.org/1999/xlink" width="12px" height="12px" viewBox="219 183.5  12 12" xmlns="http://www.w3.org/2000/svg">
  <path d="M 225 183.5  C 228.36 183.5  231 186.14  231 189.5  C 231 192.86  228.36 195.5  225 195.5  C 221.64 195.5  219 192.86  219 189.5  C 219 186.14  221.64 183.5  225 183.5  Z " fill-rule="nonzero" fill="#ffffff" stroke="none" />
  <path d="M 225 184  C 228.08 184  230.5 186.42  230.5 189.5  C 230.5 192.58  228.08 195  225 195  C 221.92 195  219.5 192.58  219.5 189.5  C 219.5 186.42  221.92 184  225 184  Z " stroke-width="1" stroke="#797979" fill="none" />
  <path d="M 225 192.5  C 223.32 192.5  222 191.18  222 189.5  C 222 187.82  223.32 186.5  225 186.5  C 226.68 186.5  228 187.82  228 189.5  C 228 191.18  226.68 192.5  225 192.5  " fill-rule="nonzero" fill="#797979" stroke="none" />
</svg>