<?xml version="1.0" encoding="utf-8"?>
<svg version="1.1" xmlns:xlink="http://www.w3.org/1999/xlink" width="12px" height="12px" viewBox="218 182.5  12 12" xmlns="http://www.w3.org/2000/svg">
  <path d="M 224 182.5  C 227.36 182.5  230 185.14  230 188.5  C 230 191.86  227.36 194.5  224 194.5  C 220.64 194.5  218 191.86  218 188.5  C 218 185.14  220.64 182.5  224 182.5  Z " fill-rule="nonzero" fill="#ffffff" stroke="none" />
  <path d="M 224 183  C 227.08 183  229.5 185.42  229.5 188.5  C 229.5 191.58  227.08 194  224 194  C 220.92 194  218.5 191.58  218.5 188.5  C 218.5 185.42  220.92 183  224 183  Z " stroke-width="1" stroke="#797979" fill="none" />
  <path d="M 224 191.5  C 222.32 191.5  221 190.18  221 188.5  C 221 186.82  222.32 185.5  224 185.5  C 225.68 185.5  227 186.82  227 188.5  C 227 190.18  225.68 191.5  224 191.5  " fill-rule="nonzero" fill="#797979" stroke="none" />
</svg>