<?xml version="1.0" encoding="utf-8"?>
<svg version="1.1" xmlns:xlink="http://www.w3.org/1999/xlink" width="350px" height="668px" xmlns="http://www.w3.org/2000/svg">
  <g transform="matrix(1 0 0 1 -89 -82 )">
    <path d="M 90 84  A 1 1 0 0 1 91 83 L 437 83  A 1 1 0 0 1 438 84 L 438 748  A 1 1 0 0 1 437 749 L 91 749  A 1 1 0 0 1 90 748 L 90 84  Z " fill-rule="nonzero" fill="#ffffff" stroke="none" fill-opacity="0.317647058823529" />
    <path d="M 89.5 84  A 1.5 1.5 0 0 1 91 82.5 L 437 82.5  A 1.5 1.5 0 0 1 438.5 84 L 438.5 748  A 1.5 1.5 0 0 1 437 749.5 L 91 749.5  A 1.5 1.5 0 0 1 89.5 748 L 89.5 84  Z " stroke-width="1" stroke="#d4d4d4" fill="none" stroke-opacity="0.996078431372549" />
  </g>
</svg>