<?xml version="1.0" encoding="utf-8"?>
<svg version="1.1" xmlns:xlink="http://www.w3.org/1999/xlink" width="19px" height="10px" preserveAspectRatio="xMinYMid meet" viewBox="428 329  19 8" xmlns="http://www.w3.org/2000/svg">
  <path d="M 430 333  L 441.5 333  A 0.5 0.5 0 0 1 442 333.5 A 0.5 0.5 0 0 0 442.5 334 L 455 334  " stroke-width="2" stroke="#ec808d" fill="none" />
  <path d="M 431.5 329.5  A 3.5 3.5 0 0 0 428 333 A 3.5 3.5 0 0 0 431.5 336.5 A 3.5 3.5 0 0 0 435 333 A 3.5 3.5 0 0 0 431.5 329.5 Z M 447.6 342  L 457 334  L 447.6 326  L 451.2 334  L 447.6 342  Z " fill-rule="nonzero" fill="#ec808d" stroke="none" />
</svg>