<?xml version="1.0" encoding="utf-8"?>
<svg version="1.1" xmlns:xlink="http://www.w3.org/1999/xlink" width="20px" height="21px" preserveAspectRatio="xMidYMin meet" viewBox="224 127  18 21" xmlns="http://www.w3.org/2000/svg">
  <path d="M 232 140  L 192 140  A 5 5 0 0 1 187 135 L 187 115  A 5 5 0 0 0 182 110 L 146 110  A 5 5 0 0 0 141 115 L 141 128  " stroke-width="2" stroke="#ec808d" fill="none" />
  <path d="M 230.070796326795 136.5  A 3.5 3.5 0 0 0 226.570796326795 140 A 3.5 3.5 0 0 0 230.070796326795 143.5 A 3.5 3.5 0 0 0 233.570796326795 140 A 3.5 3.5 0 0 0 230.070796326795 136.5 Z M 133 120.6  L 141 130  L 149 120.6  L 141 124.2  L 133 120.6  Z " fill-rule="nonzero" fill="#ec808d" stroke="none" />
</svg>