<?xml version="1.0" encoding="utf-8"?>
<svg version="1.1" xmlns:xlink="http://www.w3.org/1999/xlink" width="10px" height="6px" preserveAspectRatio="xMinYMid meet" viewBox="372 806  10 4" xmlns="http://www.w3.org/2000/svg">
  <path d="M 377 811  A 1 1 0 0 1 378 810 L 449 810  A 3 3 0 0 1 452 807 A 3 3 0 0 1 455 810 L 499.5 810  A 0.5 0.5 0 0 1 500 810.5 A 0.5 0.5 0 0 0 500.5 811 L 515 811  " stroke-width="2" stroke="#ec808d" fill="none" />
  <path d="M 509.892893218813 806.707106781187  L 514.185786437627 811  L 509.892893218813 815.292893218813  L 511.307106781187 816.707106781187  L 516.307106781187 811.707106781187  L 517.014213562373 811  L 516.307106781187 810.292893218813  L 511.307106781187 805.292893218813  L 509.892893218813 806.707106781187  Z " fill-rule="nonzero" fill="#ec808d" stroke="none" />
</svg>