<?xml version="1.0" encoding="utf-8"?>
<svg version="1.1" xmlns:xlink="http://www.w3.org/1999/xlink" width="21px" height="20px" preserveAspectRatio="xMinYMid meet" viewBox="407 238  21 18" xmlns="http://www.w3.org/2000/svg">
  <path d="M 416 247  L 460 247  A 5 5 0 0 1 465 252 L 465 286  " stroke-width="2" stroke="#ec808d" fill="none" />
  <path d="M 417.5 243.5  A 3.5 3.5 0 0 0 414 247 A 3.5 3.5 0 0 0 417.5 250.5 A 3.5 3.5 0 0 0 421 247 A 3.5 3.5 0 0 0 417.5 243.5 Z M 465 281  A 3.5 3.5 0 0 0 461.5 284.5 A 3.5 3.5 0 0 0 465 288 A 3.5 3.5 0 0 0 468.5 284.5 A 3.5 3.5 0 0 0 465 281 Z " fill-rule="nonzero" fill="#ec808d" stroke="none" />
</svg>