<?xml version="1.0" encoding="utf-8"?>
<svg version="1.1" xmlns:xlink="http://www.w3.org/1999/xlink" width="18px" height="18px" xmlns="http://www.w3.org/2000/svg">
  <g transform="matrix(1 0 0 1 -908 -306 )">
    <path d="M 917 306  C 922.04 306  926 309.96  926 315  C 926 320.04  922.04 324  917 324  C 911.96 324  908 320.04  908 315  C 908 309.96  911.96 306  917 306  Z " fill-rule="nonzero" fill="#f2f2f2" stroke="none" />
    <path d="M 917 306.5  C 921.76 306.5  925.5 310.24  925.5 315  C 925.5 319.76  921.76 323.5  917 323.5  C 912.24 323.5  908.5 319.76  908.5 315  C 908.5 310.24  912.24 306.5  917 306.5  Z " stroke-width="1" stroke="#d7d7d7" fill="none" />
  </g>
</svg>