<?xml version="1.0" encoding="utf-8"?>
<svg version="1.1" xmlns:xlink="http://www.w3.org/1999/xlink" width="98px" height="10px" preserveAspectRatio="xMinYMid meet" viewBox="663 99  98 8" xmlns="http://www.w3.org/2000/svg">
  <path d="M 665 103  L 751 103  A 5 5 0 0 1 756 108 L 756 280  A 5 5 0 0 0 761 285 L 1065 285  A 5 5 0 0 1 1070 290 L 1070 326  " stroke-width="2" stroke="#ec808d" fill="none" />
  <path d="M 666.5 99.5  A 3.5 3.5 0 0 0 663 103 A 3.5 3.5 0 0 0 666.5 106.5 A 3.5 3.5 0 0 0 670 103 A 3.5 3.5 0 0 0 666.5 99.5 Z M 1062 318.6  L 1070 328  L 1078 318.6  L 1070 322.2  L 1062 318.6  Z " fill-rule="nonzero" fill="#ec808d" stroke="none" />
</svg>