<?xml version="1.0" encoding="utf-8"?>
<svg version="1.1" xmlns:xlink="http://www.w3.org/1999/xlink" width="5px" height="9px" xmlns="http://www.w3.org/2000/svg">
  <g transform="matrix(1 0 0 1 -323 -476 )">
    <path d="M 5 4.5  C 5 4.57704304429196  4.97153916211293 4.64519650655024  4.91461748633881 4.70446038677479  L 0.935792349726761 8.84700561447289  C 0.878870673952648 8.90626949469744  0.813410746812373 8.93590143480974  0.739412568306008 8.93590143480974  C 0.665414389799643 8.93590143480974  0.599954462659369 8.90626949469744  0.543032786885256 8.84700561447289  L 0.116120218579248 8.40252651278849  C 0.059198542805099 8.34326263256395  0.0307377049180246 8.27510917030566  0.0307377049180246 8.19806612601371  C 0.0307377049180246 8.12102308172175  0.059198542805099 8.05286961946354  0.116120218579248 7.99360573923892  L 3.47165300546447 4.5  L 0.116120218579248 1.00639426076108  C 0.059198542805099 0.947130380536464  0.0307377049180246 0.878976918278251  0.0307377049180246 0.801933873986294  C 0.0307377049180246 0.724890829694337  0.059198542805099 0.656737367436051  0.116120218579248 0.597473487211508  L 0.543032786885256 0.152994385527109  C 0.599954462659369 0.0937305053025657  0.665414389799643 0.0640985651902578  0.739412568306008 0.0640985651902578  C 0.813410746812373 0.0640985651902578  0.878870673952648 0.0937305053025657  0.935792349726761 0.152994385527109  L 4.91461748633881 4.29553961322521  C 4.97153916211293 4.35480349344976  5 4.42295695570804  5 4.5  Z " fill-rule="nonzero" fill="#ffffff" stroke="none" transform="matrix(1 0 0 1 323 476 )" />
  </g>
</svg>