<?xml version="1.0" encoding="utf-8"?>
<svg version="1.1" xmlns:xlink="http://www.w3.org/1999/xlink" width="21px" height="20px" preserveAspectRatio="xMinYMid meet" viewBox="408 344  21 18" xmlns="http://www.w3.org/2000/svg">
  <defs>
    <mask fill="white" id="clip129">
      <path d="M 497 340  L 569 340  L 569 365  L 497 365  Z M 405 340  L 632 340  L 632 391  L 405 391  Z " fill-rule="evenodd" />
    </mask>
  </defs>
  <path d="M 417 353  L 617 353  A 5 5 0 0 1 622 358 L 622 379  " stroke-width="2" stroke="#ec808d" fill="none" mask="url(#clip129)" />
  <path d="M 418.5 349.5  A 3.5 3.5 0 0 0 415 353 A 3.5 3.5 0 0 0 418.5 356.5 A 3.5 3.5 0 0 0 422 353 A 3.5 3.5 0 0 0 418.5 349.5 Z M 622 374  A 3.5 3.5 0 0 0 618.5 377.5 A 3.5 3.5 0 0 0 622 381 A 3.5 3.5 0 0 0 625.5 377.5 A 3.5 3.5 0 0 0 622 374 Z " fill-rule="nonzero" fill="#ec808d" stroke="none" mask="url(#clip129)" />
</svg>