<?xml version="1.0" encoding="utf-8"?>
<svg version="1.1" xmlns:xlink="http://www.w3.org/1999/xlink" width="15px" height="10px" preserveAspectRatio="xMinYMid meet" viewBox="457 222  15 8" xmlns="http://www.w3.org/2000/svg">
  <path d="M 416 191  A 5 5 0 0 0 421 196 L 457 196  A 5 5 0 0 1 462 201 L 462 221  A 5 5 0 0 0 467 226 L 470 226  " stroke-width="2" stroke="#ec808d" fill="none" />
  <path d="M 416.612087190548 189.897127693021  A 3.5 3.5 0 0 0 413.112087190548 193.397127693021 A 3.5 3.5 0 0 0 416.612087190548 196.897127693021 A 3.5 3.5 0 0 0 420.112087190548 193.397127693021 A 3.5 3.5 0 0 0 416.612087190548 189.897127693021 Z M 468.5 222.5  A 3.5 3.5 0 0 0 465 226 A 3.5 3.5 0 0 0 468.5 229.5 A 3.5 3.5 0 0 0 472 226 A 3.5 3.5 0 0 0 468.5 222.5 Z " fill-rule="nonzero" fill="#ec808d" stroke="none" />
</svg>