<?xml version="1.0" encoding="utf-8"?>
<svg version="1.1" xmlns:xlink="http://www.w3.org/1999/xlink" width="21px" height="20px" preserveAspectRatio="xMinYMid meet" viewBox="348 165  21 18" xmlns="http://www.w3.org/2000/svg">
  <path d="M 357 174  L 470 174  " stroke-width="2" stroke="#ec808d" fill="none" />
  <path d="M 358.5 170.5  A 3.5 3.5 0 0 0 355 174 A 3.5 3.5 0 0 0 358.5 177.5 A 3.5 3.5 0 0 0 362 174 A 3.5 3.5 0 0 0 358.5 170.5 Z M 468.5 170.5  A 3.5 3.5 0 0 0 465 174 A 3.5 3.5 0 0 0 468.5 177.5 A 3.5 3.5 0 0 0 472 174 A 3.5 3.5 0 0 0 468.5 170.5 Z " fill-rule="nonzero" fill="#ec808d" stroke="none" />
</svg>