<?xml version="1.0" encoding="utf-8"?>
<svg version="1.1" xmlns:xlink="http://www.w3.org/1999/xlink" width="72px" height="10px" preserveAspectRatio="xMinYMid meet" viewBox="403 109  72 8" xmlns="http://www.w3.org/2000/svg">
  <path d="M 405 113  L 468 113  " stroke-width="2" stroke="#ec808d" fill="none" />
  <path d="M 406.5 109.5  A 3.5 3.5 0 0 0 403 113 A 3.5 3.5 0 0 0 406.5 116.5 A 3.5 3.5 0 0 0 410 113 A 3.5 3.5 0 0 0 406.5 109.5 Z M 466.5 109.5  A 3.5 3.5 0 0 0 463 113 A 3.5 3.5 0 0 0 466.5 116.5 A 3.5 3.5 0 0 0 470 113 A 3.5 3.5 0 0 0 466.5 109.5 Z " fill-rule="nonzero" fill="#ec808d" stroke="none" />
</svg>