<?xml version="1.0" encoding="utf-8"?>
<svg version="1.1" xmlns:xlink="http://www.w3.org/1999/xlink" width="200px" height="10px" preserveAspectRatio="xMinYMid meet" viewBox="843 222  200 8" xmlns="http://www.w3.org/2000/svg">
  <path d="M 845 226  L 1033 226  A 5 5 0 0 1 1038 231 L 1038 340  " stroke-width="2" stroke="#ec808d" fill="none" />
  <path d="M 846.5 222.5  A 3.5 3.5 0 0 0 843 226 A 3.5 3.5 0 0 0 846.5 229.5 A 3.5 3.5 0 0 0 850 226 A 3.5 3.5 0 0 0 846.5 222.5 Z M 1038 335  A 3.5 3.5 0 0 0 1034.5 338.5 A 3.5 3.5 0 0 0 1038 342 A 3.5 3.5 0 0 0 1041.5 338.5 A 3.5 3.5 0 0 0 1038 335 Z " fill-rule="nonzero" fill="#ec808d" stroke="none" />
</svg>