<?xml version="1.0" encoding="utf-8"?>
<svg version="1.1" xmlns:xlink="http://www.w3.org/1999/xlink" width="18px" height="18px" xmlns="http://www.w3.org/2000/svg">
  <g transform="matrix(1 0 0 1 -84 -133 )">
    <path d="M 93 133  C 98.04 133  102 136.96  102 142  C 102 147.04  98.04 151  93 151  C 87.96 151  84 147.04  84 142  C 84 136.96  87.96 133  93 133  Z " fill-rule="nonzero" fill="#ffffff" stroke="none" />
    <path d="M 93 133.5  C 97.76 133.5  101.5 137.24  101.5 142  C 101.5 146.76  97.76 150.5  93 150.5  C 88.24 150.5  84.5 146.76  84.5 142  C 84.5 137.24  88.24 133.5  93 133.5  Z " stroke-width="1" stroke="#d7d7d7" fill="none" />
  </g>
</svg>