<?xml version="1.0" encoding="utf-8"?>
<svg version="1.1" xmlns:xlink="http://www.w3.org/1999/xlink" width="360px" height="720px" xmlns="http://www.w3.org/2000/svg">
  <g transform="matrix(1 0 0 1 -73 -60 )">
    <path d="M 74 67  A 6 6 0 0 1 80 61 L 426 61  A 6 6 0 0 1 432 67 L 432 773  A 6 6 0 0 1 426 779 L 80 779  A 6 6 0 0 1 74 773 L 74 67  Z " fill-rule="nonzero" fill="#ffffff" stroke="none" fill-opacity="0.317647058823529" />
    <path d="M 73.5 67  A 6.5 6.5 0 0 1 80 60.5 L 426 60.5  A 6.5 6.5 0 0 1 432.5 67 L 432.5 773  A 6.5 6.5 0 0 1 426 779.5 L 80 779.5  A 6.5 6.5 0 0 1 73.5 773 L 73.5 67  Z " stroke-width="1" stroke="#d4d4d4" fill="none" stroke-opacity="0.996078431372549" />
  </g>
</svg>