<?xml version="1.0" encoding="utf-8"?>
<svg version="1.1" xmlns:xlink="http://www.w3.org/1999/xlink" width="18px" height="18px" xmlns="http://www.w3.org/2000/svg">
  <g transform="matrix(1 0 0 1 -567 -1273 )">
    <path d="M 576 1273.5  C 580.76 1273.5  584.5 1277.24  584.5 1282  C 584.5 1286.76  580.76 1290.5  576 1290.5  C 571.24 1290.5  567.5 1286.76  567.5 1282  C 567.5 1277.24  571.24 1273.5  576 1273.5  Z " fill-rule="nonzero" fill="#d9001b" stroke="none" fill-opacity="0.996078431372549" />
    <path d="M 576 1273.5  C 580.76 1273.5  584.5 1277.24  584.5 1282  C 584.5 1286.76  580.76 1290.5  576 1290.5  C 571.24 1290.5  567.5 1286.76  567.5 1282  C 567.5 1277.24  571.24 1273.5  576 1273.5  Z " stroke-width="1" stroke="#ec808d" fill="none" stroke-opacity="0.996078431372549" />
  </g>
</svg>