<?xml version="1.0" encoding="utf-8"?>
<svg version="1.1" xmlns:xlink="http://www.w3.org/1999/xlink" width="34px" height="34px" preserveAspectRatio="xMinYMid meet" viewBox="646 545  34 32" xmlns="http://www.w3.org/2000/svg">
  <path d="M 700 508  L 700 545  A 5 5 0 0 1 695 550 L 668 550  A 5 5 0 0 0 663 555 L 663 561  " stroke-width="2" stroke="#ec808d" fill="none" />
  <path d="M 700 506  A 3.5 3.5 0 0 0 696.5 509.5 A 3.5 3.5 0 0 0 700 513 A 3.5 3.5 0 0 0 703.5 509.5 A 3.5 3.5 0 0 0 700 506 Z M 655 553.6  L 663 563  L 671 553.6  L 663 557.2  L 655 553.6  Z " fill-rule="nonzero" fill="#ec808d" stroke="none" />
</svg>