<?xml version="1.0" encoding="utf-8"?>
<svg version="1.1" xmlns:xlink="http://www.w3.org/1999/xlink" width="12px" height="12px" viewBox="135 501.5  12 12" xmlns="http://www.w3.org/2000/svg">
  <path d="M 141 501.5  C 144.36 501.5  147 504.14  147 507.5  C 147 510.86  144.36 513.5  141 513.5  C 137.64 513.5  135 510.86  135 507.5  C 135 504.14  137.64 501.5  141 501.5  Z " fill-rule="nonzero" fill="#ffffff" stroke="none" />
  <path d="M 141 502  C 144.08 502  146.5 504.42  146.5 507.5  C 146.5 510.58  144.08 513  141 513  C 137.92 513  135.5 510.58  135.5 507.5  C 135.5 504.42  137.92 502  141 502  Z " stroke-width="1" stroke="#797979" fill="none" />
  <path d="M 141 510.5  C 139.32 510.5  138 509.18  138 507.5  C 138 505.82  139.32 504.5  141 504.5  C 142.68 504.5  144 505.82  144 507.5  C 144 509.18  142.68 510.5  141 510.5  " fill-rule="nonzero" fill="#797979" stroke="none" />
</svg>