<?xml version="1.0" encoding="utf-8"?>
<svg version="1.1" xmlns:xlink="http://www.w3.org/1999/xlink" width="12px" height="12px" viewBox="225 501.5  12 12" xmlns="http://www.w3.org/2000/svg">
  <path d="M 231 501.5  C 234.36 501.5  237 504.14  237 507.5  C 237 510.86  234.36 513.5  231 513.5  C 227.64 513.5  225 510.86  225 507.5  C 225 504.14  227.64 501.5  231 501.5  Z " fill-rule="nonzero" fill="#ffffff" stroke="none" />
  <path d="M 231 502  C 234.08 502  236.5 504.42  236.5 507.5  C 236.5 510.58  234.08 513  231 513  C 227.92 513  225.5 510.58  225.5 507.5  C 225.5 504.42  227.92 502  231 502  Z " stroke-width="1" stroke="#797979" fill="none" />
  <path d="M 231 510.5  C 229.32 510.5  228 509.18  228 507.5  C 228 505.82  229.32 504.5  231 504.5  C 232.68 504.5  234 505.82  234 507.5  C 234 509.18  232.68 510.5  231 510.5  " fill-rule="nonzero" fill="#797979" stroke="none" />
</svg>