<?xml version="1.0" encoding="utf-8"?>
<svg version="1.1" xmlns:xlink="http://www.w3.org/1999/xlink" width="12px" height="12px" viewBox="180 1778.5  12 12" xmlns="http://www.w3.org/2000/svg">
  <path d="M 186 1778.5  C 189.36 1778.5  192 1781.14  192 1784.5  C 192 1787.86  189.36 1790.5  186 1790.5  C 182.64 1790.5  180 1787.86  180 1784.5  C 180 1781.14  182.64 1778.5  186 1778.5  Z " fill-rule="nonzero" fill="#ffffff" stroke="none" />
  <path d="M 186 1779  C 189.08 1779  191.5 1781.42  191.5 1784.5  C 191.5 1787.58  189.08 1790  186 1790  C 182.92 1790  180.5 1787.58  180.5 1784.5  C 180.5 1781.42  182.92 1779  186 1779  Z " stroke-width="1" stroke="#797979" fill="none" />
  <path d="M 186 1787.5  C 184.32 1787.5  183 1786.18  183 1784.5  C 183 1782.82  184.32 1781.5  186 1781.5  C 187.68 1781.5  189 1782.82  189 1784.5  C 189 1786.18  187.68 1787.5  186 1787.5  " fill-rule="nonzero" fill="#797979" stroke="none" />
</svg>