<?xml version="1.0" encoding="utf-8"?>
<svg version="1.1" xmlns:xlink="http://www.w3.org/1999/xlink" width="12px" height="12px" viewBox="244 1778.5  12 12" xmlns="http://www.w3.org/2000/svg">
  <path d="M 250 1778.5  C 253.36 1778.5  256 1781.14  256 1784.5  C 256 1787.86  253.36 1790.5  250 1790.5  C 246.64 1790.5  244 1787.86  244 1784.5  C 244 1781.14  246.64 1778.5  250 1778.5  Z " fill-rule="nonzero" fill="#ffffff" stroke="none" />
  <path d="M 250 1779  C 253.08 1779  255.5 1781.42  255.5 1784.5  C 255.5 1787.58  253.08 1790  250 1790  C 246.92 1790  244.5 1787.58  244.5 1784.5  C 244.5 1781.42  246.92 1779  250 1779  Z " stroke-width="1" stroke="#797979" fill="none" />
  <path d="M 250 1787.5  C 248.32 1787.5  247 1786.18  247 1784.5  C 247 1782.82  248.32 1781.5  250 1781.5  C 251.68 1781.5  253 1782.82  253 1784.5  C 253 1786.18  251.68 1787.5  250 1787.5  " fill-rule="nonzero" fill="#797979" stroke="none" />
</svg>