<?xml version="1.0" encoding="utf-8"?>
<svg version="1.1" xmlns:xlink="http://www.w3.org/1999/xlink" width="12px" height="12px" viewBox="180 2013.5  12 12" xmlns="http://www.w3.org/2000/svg">
  <path d="M 186 2013.5  C 189.36 2013.5  192 2016.14  192 2019.5  C 192 2022.86  189.36 2025.5  186 2025.5  C 182.64 2025.5  180 2022.86  180 2019.5  C 180 2016.14  182.64 2013.5  186 2013.5  Z " fill-rule="nonzero" fill="#ffffff" stroke="none" />
  <path d="M 186 2014  C 189.08 2014  191.5 2016.42  191.5 2019.5  C 191.5 2022.58  189.08 2025  186 2025  C 182.92 2025  180.5 2022.58  180.5 2019.5  C 180.5 2016.42  182.92 2014  186 2014  Z " stroke-width="1" stroke="#797979" fill="none" />
  <path d="M 186 2022.5  C 184.32 2022.5  183 2021.18  183 2019.5  C 183 2017.82  184.32 2016.5  186 2016.5  C 187.68 2016.5  189 2017.82  189 2019.5  C 189 2021.18  187.68 2022.5  186 2022.5  " fill-rule="nonzero" fill="#797979" stroke="none" />
</svg>