<?xml version="1.0" encoding="utf-8"?>
<svg version="1.1" xmlns:xlink="http://www.w3.org/1999/xlink" width="12px" height="12px" viewBox="180 1960.5  12 12" xmlns="http://www.w3.org/2000/svg">
  <path d="M 186 1960.5  C 189.36 1960.5  192 1963.14  192 1966.5  C 192 1969.86  189.36 1972.5  186 1972.5  C 182.64 1972.5  180 1969.86  180 1966.5  C 180 1963.14  182.64 1960.5  186 1960.5  Z " fill-rule="nonzero" fill="#ffffff" stroke="none" />
  <path d="M 186 1961  C 189.08 1961  191.5 1963.42  191.5 1966.5  C 191.5 1969.58  189.08 1972  186 1972  C 182.92 1972  180.5 1969.58  180.5 1966.5  C 180.5 1963.42  182.92 1961  186 1961  Z " stroke-width="1" stroke="#797979" fill="none" />
  <path d="M 186 1969.5  C 184.32 1969.5  183 1968.18  183 1966.5  C 183 1964.82  184.32 1963.5  186 1963.5  C 187.68 1963.5  189 1964.82  189 1966.5  C 189 1968.18  187.68 1969.5  186 1969.5  " fill-rule="nonzero" fill="#797979" stroke="none" />
</svg>