<?xml version="1.0" encoding="utf-8"?>
<svg version="1.1" xmlns:xlink="http://www.w3.org/1999/xlink" width="12px" height="12px" viewBox="268 2063.5  12 12" xmlns="http://www.w3.org/2000/svg">
  <path d="M 274 2063.5  C 277.36 2063.5  280 2066.14  280 2069.5  C 280 2072.86  277.36 2075.5  274 2075.5  C 270.64 2075.5  268 2072.86  268 2069.5  C 268 2066.14  270.64 2063.5  274 2063.5  Z " fill-rule="nonzero" fill="#ffffff" stroke="none" />
  <path d="M 274 2064  C 277.08 2064  279.5 2066.42  279.5 2069.5  C 279.5 2072.58  277.08 2075  274 2075  C 270.92 2075  268.5 2072.58  268.5 2069.5  C 268.5 2066.42  270.92 2064  274 2064  Z " stroke-width="1" stroke="#797979" fill="none" />
  <path d="M 274 2072.5  C 272.32 2072.5  271 2071.18  271 2069.5  C 271 2067.82  272.32 2066.5  274 2066.5  C 275.68 2066.5  277 2067.82  277 2069.5  C 277 2071.18  275.68 2072.5  274 2072.5  " fill-rule="nonzero" fill="#797979" stroke="none" />
</svg>