<?xml version="1.0" encoding="utf-8"?>
<svg version="1.1" xmlns:xlink="http://www.w3.org/1999/xlink" width="12px" height="12px" viewBox="180 1827.5  12 12" xmlns="http://www.w3.org/2000/svg">
  <path d="M 186 1827.5  C 189.36 1827.5  192 1830.14  192 1833.5  C 192 1836.86  189.36 1839.5  186 1839.5  C 182.64 1839.5  180 1836.86  180 1833.5  C 180 1830.14  182.64 1827.5  186 1827.5  Z " fill-rule="nonzero" fill="#ffffff" stroke="none" />
  <path d="M 186 1828  C 189.08 1828  191.5 1830.42  191.5 1833.5  C 191.5 1836.58  189.08 1839  186 1839  C 182.92 1839  180.5 1836.58  180.5 1833.5  C 180.5 1830.42  182.92 1828  186 1828  Z " stroke-width="1" stroke="#797979" fill="none" />
  <path d="M 186 1836.5  C 184.32 1836.5  183 1835.18  183 1833.5  C 183 1831.82  184.32 1830.5  186 1830.5  C 187.68 1830.5  189 1831.82  189 1833.5  C 189 1835.18  187.68 1836.5  186 1836.5  " fill-rule="nonzero" fill="#797979" stroke="none" />
</svg>