<?xml version="1.0" encoding="utf-8"?>
<svg version="1.1" xmlns:xlink="http://www.w3.org/1999/xlink" width="12px" height="12px" viewBox="180 2095.5  12 12" xmlns="http://www.w3.org/2000/svg">
  <path d="M 186 2095.5  C 189.36 2095.5  192 2098.14  192 2101.5  C 192 2104.86  189.36 2107.5  186 2107.5  C 182.64 2107.5  180 2104.86  180 2101.5  C 180 2098.14  182.64 2095.5  186 2095.5  Z " fill-rule="nonzero" fill="#ffffff" stroke="none" />
  <path d="M 186 2096  C 189.08 2096  191.5 2098.42  191.5 2101.5  C 191.5 2104.58  189.08 2107  186 2107  C 182.92 2107  180.5 2104.58  180.5 2101.5  C 180.5 2098.42  182.92 2096  186 2096  Z " stroke-width="1" stroke="#797979" fill="none" />
  <path d="M 186 2104.5  C 184.32 2104.5  183 2103.18  183 2101.5  C 183 2099.82  184.32 2098.5  186 2098.5  C 187.68 2098.5  189 2099.82  189 2101.5  C 189 2103.18  187.68 2104.5  186 2104.5  " fill-rule="nonzero" fill="#797979" stroke="none" />
</svg>