<?xml version="1.0" encoding="utf-8"?>
<svg version="1.1" xmlns:xlink="http://www.w3.org/1999/xlink" width="12px" height="12px" viewBox="269 2095.5  12 12" xmlns="http://www.w3.org/2000/svg">
  <path d="M 275 2095.5  C 278.36 2095.5  281 2098.14  281 2101.5  C 281 2104.86  278.36 2107.5  275 2107.5  C 271.64 2107.5  269 2104.86  269 2101.5  C 269 2098.14  271.64 2095.5  275 2095.5  Z " fill-rule="nonzero" fill="#ffffff" stroke="none" />
  <path d="M 275 2096  C 278.08 2096  280.5 2098.42  280.5 2101.5  C 280.5 2104.58  278.08 2107  275 2107  C 271.92 2107  269.5 2104.58  269.5 2101.5  C 269.5 2098.42  271.92 2096  275 2096  Z " stroke-width="1" stroke="#797979" fill="none" />
  <path d="M 275 2104.5  C 273.32 2104.5  272 2103.18  272 2101.5  C 272 2099.82  273.32 2098.5  275 2098.5  C 276.68 2098.5  278 2099.82  278 2101.5  C 278 2103.18  276.68 2104.5  275 2104.5  " fill-rule="nonzero" fill="#797979" stroke="none" />
</svg>