<?xml version="1.0" encoding="utf-8"?>
<svg version="1.1" xmlns:xlink="http://www.w3.org/1999/xlink" width="12px" height="12px" viewBox="250 1925.5  12 12" xmlns="http://www.w3.org/2000/svg">
  <path d="M 256 1925.5  C 259.36 1925.5  262 1928.14  262 1931.5  C 262 1934.86  259.36 1937.5  256 1937.5  C 252.64 1937.5  250 1934.86  250 1931.5  C 250 1928.14  252.64 1925.5  256 1925.5  Z " fill-rule="nonzero" fill="#ffffff" stroke="none" />
  <path d="M 256 1926  C 259.08 1926  261.5 1928.42  261.5 1931.5  C 261.5 1934.58  259.08 1937  256 1937  C 252.92 1937  250.5 1934.58  250.5 1931.5  C 250.5 1928.42  252.92 1926  256 1926  Z " stroke-width="1" stroke="#797979" fill="none" />
  <path d="M 256 1934.5  C 254.32 1934.5  253 1933.18  253 1931.5  C 253 1929.82  254.32 1928.5  256 1928.5  C 257.68 1928.5  259 1929.82  259 1931.5  C 259 1933.18  257.68 1934.5  256 1934.5  " fill-rule="nonzero" fill="#797979" stroke="none" />
</svg>