<?xml version="1.0" encoding="utf-8"?>
<svg version="1.1" xmlns:xlink="http://www.w3.org/1999/xlink" width="447px" height="10px" preserveAspectRatio="xMinYMid meet" viewBox="835 26  447 8" xmlns="http://www.w3.org/2000/svg">
  <path d="M 851 158  L 845 158  A 5 5 0 0 1 840 153 L 840 35  A 5 5 0 0 1 845 30 L 1272 30  A 5 5 0 0 1 1277 35 L 1277 135  " stroke-width="2" stroke="#ec808d" fill="none" />
  <path d="M 849.5 154.5  A 3.5 3.5 0 0 0 846 158 A 3.5 3.5 0 0 0 849.5 161.5 A 3.5 3.5 0 0 0 853 158 A 3.5 3.5 0 0 0 849.5 154.5 Z M 1269 127.6  L 1277 137  L 1285 127.6  L 1277 131.2  L 1269 127.6  Z " fill-rule="nonzero" fill="#ec808d" stroke="none" />
</svg>