<?xml version="1.0" encoding="utf-8"?>
<svg version="1.1" xmlns:xlink="http://www.w3.org/1999/xlink" width="34px" height="34px" preserveAspectRatio="xMinYMid meet" viewBox="211 7  34 32" xmlns="http://www.w3.org/2000/svg">
  <path d="M 459 165  L 446 165  A 5 5 0 0 1 441 160 L 441 28  A 5 5 0 0 0 436 23 L 228 23  " stroke-width="2" stroke="#ec808d" fill="none" />
  <path d="M 457.5 161.5  A 3.5 3.5 0 0 0 454 165 A 3.5 3.5 0 0 0 457.5 168.5 A 3.5 3.5 0 0 0 461 165 A 3.5 3.5 0 0 0 457.5 161.5 Z M 235.4 15  L 226 23  L 235.4 31  L 231.8 23  L 235.4 15  Z " fill-rule="nonzero" fill="#ec808d" stroke="none" />
</svg>