<?xml version="1.0" encoding="utf-8"?>
<svg version="1.1" xmlns:xlink="http://www.w3.org/1999/xlink" width="21px" height="20px" preserveAspectRatio="xMinYMid meet" viewBox="82 156  21 18" xmlns="http://www.w3.org/2000/svg">
  <path d="M 94 165  L 45 165  A 5 5 0 0 1 40 160 L 40 28  A 5 5 0 0 1 45 23 L 56 23  " stroke-width="2" stroke="#ec808d" fill="none" />
  <path d="M 92.5 161.5  A 3.5 3.5 0 0 0 89 165 A 3.5 3.5 0 0 0 92.5 168.5 A 3.5 3.5 0 0 0 96 165 A 3.5 3.5 0 0 0 92.5 161.5 Z M 48.6 31  L 58 23  L 48.6 15  L 52.2 23  L 48.6 31  Z " fill-rule="nonzero" fill="#ec808d" stroke="none" />
</svg>