<?xml version="1.0" encoding="utf-8"?>
<svg version="1.1" xmlns:xlink="http://www.w3.org/1999/xlink" width="12px" height="12px" viewBox="218 125.5  12 12" xmlns="http://www.w3.org/2000/svg">
  <path d="M 224 125.5  C 227.36 125.5  230 128.14  230 131.5  C 230 134.86  227.36 137.5  224 137.5  C 220.64 137.5  218 134.86  218 131.5  C 218 128.14  220.64 125.5  224 125.5  Z " fill-rule="nonzero" fill="#ffffff" stroke="none" />
  <path d="M 224 126  C 227.08 126  229.5 128.42  229.5 131.5  C 229.5 134.58  227.08 137  224 137  C 220.92 137  218.5 134.58  218.5 131.5  C 218.5 128.42  220.92 126  224 126  Z " stroke-width="1" stroke="#797979" fill="none" />
  <path d="M 224 134.5  C 222.32 134.5  221 133.18  221 131.5  C 221 129.82  222.32 128.5  224 128.5  C 225.68 128.5  227 129.82  227 131.5  C 227 133.18  225.68 134.5  224 134.5  " fill-rule="nonzero" fill="#797979" stroke="none" />
</svg>