<?xml version="1.0" encoding="utf-8"?>
<svg version="1.1" xmlns:xlink="http://www.w3.org/1999/xlink" width="38px" height="10px" preserveAspectRatio="xMinYMid meet" viewBox="115 260  38 8" xmlns="http://www.w3.org/2000/svg">
  <path d="M 151 264  L 125 264  A 5 5 0 0 1 120 259 L 120 159  A 5 5 0 0 1 125 154 L 151 154  " stroke-width="2" stroke="#ec808d" fill="none" />
  <path d="M 149.5 260.5  A 3.5 3.5 0 0 0 146 264 A 3.5 3.5 0 0 0 149.5 267.5 A 3.5 3.5 0 0 0 153 264 A 3.5 3.5 0 0 0 149.5 260.5 Z M 143.6 162  L 153 154  L 143.6 146  L 147.2 154  L 143.6 162  Z " fill-rule="nonzero" fill="#ec808d" stroke="none" />
</svg>