<?xml version="1.0" encoding="utf-8"?>
<svg version="1.1" xmlns:xlink="http://www.w3.org/1999/xlink" width="350px" height="795px" xmlns="http://www.w3.org/2000/svg">
  <g transform="matrix(1 0 0 1 -91 -82 )">
    <path d="M 92 84  A 1 1 0 0 1 93 83 L 439 83  A 1 1 0 0 1 440 84 L 440 875  A 1 1 0 0 1 439 876 L 93 876  A 1 1 0 0 1 92 875 L 92 84  Z " fill-rule="nonzero" fill="#ffffff" stroke="none" fill-opacity="0.317647058823529" />
    <path d="M 91.5 84  A 1.5 1.5 0 0 1 93 82.5 L 439 82.5  A 1.5 1.5 0 0 1 440.5 84 L 440.5 875  A 1.5 1.5 0 0 1 439 876.5 L 93 876.5  A 1.5 1.5 0 0 1 91.5 875 L 91.5 84  Z " stroke-width="1" stroke="#d4d4d4" fill="none" stroke-opacity="0.996078431372549" />
  </g>
</svg>