<?xml version="1.0" encoding="utf-8"?>
<svg version="1.1" xmlns:xlink="http://www.w3.org/1999/xlink" width="350px" height="753px" xmlns="http://www.w3.org/2000/svg">
  <g transform="matrix(1 0 0 1 -91 -172 )">
    <path d="M 92 174  A 1 1 0 0 1 93 173 L 439 173  A 1 1 0 0 1 440 174 L 440 923  A 1 1 0 0 1 439 924 L 93 924  A 1 1 0 0 1 92 923 L 92 174  Z " fill-rule="nonzero" fill="#f2f2f2" stroke="none" fill-opacity="0.952941176470588" />
    <path d="M 91.5 174  A 1.5 1.5 0 0 1 93 172.5 L 439 172.5  A 1.5 1.5 0 0 1 440.5 174 L 440.5 923  A 1.5 1.5 0 0 1 439 924.5 L 93 924.5  A 1.5 1.5 0 0 1 91.5 923 L 91.5 174  Z " stroke-width="1" stroke="#d4d4d4" fill="none" stroke-opacity="0.996078431372549" />
  </g>
</svg>