<?xml version="1.0" encoding="utf-8"?>
<svg version="1.1" xmlns:xlink="http://www.w3.org/1999/xlink" width="98px" height="27px" xmlns="http://www.w3.org/2000/svg">
  <g transform="matrix(1 0 0 1 -256 -352 )">
    <path d="M 257 354  A 1 1 0 0 1 258 353 L 352 353  A 1 1 0 0 1 353 354 L 353 377  A 1 1 0 0 1 352 378 L 258 378  A 1 1 0 0 1 257 377 L 257 354  Z " fill-rule="nonzero" fill="#ffffff" stroke="none" />
    <path d="M 256.5 354  A 1.5 1.5 0 0 1 258 352.5 L 352 352.5  A 1.5 1.5 0 0 1 353.5 354 L 353.5 377  A 1.5 1.5 0 0 1 352 378.5 L 258 378.5  A 1.5 1.5 0 0 1 256.5 377 L 256.5 354  Z " stroke-width="1" stroke="#9e9e9e" fill="none" stroke-opacity="0.603921568627451" />
  </g>
</svg>