<?xml version="1.0" encoding="utf-8"?>
<svg version="1.1" xmlns:xlink="http://www.w3.org/1999/xlink" width="10px" height="11px" preserveAspectRatio="xMidYMin meet" viewBox="566 121  8 11" xmlns="http://www.w3.org/2000/svg">
  <path d="M 436 126  L 569.5 126  A 0.5 0.5 0 0 1 570 126.5 A 0.5 0.5 0 0 0 570.5 127 L 587 127  " stroke-width="2" stroke="#ec808d" fill="none" />
  <path d="M 437.5 122.5  A 3.5 3.5 0 0 0 434 126 A 3.5 3.5 0 0 0 437.5 129.5 A 3.5 3.5 0 0 0 441 126 A 3.5 3.5 0 0 0 437.5 122.5 Z M 581.892893218813 122.707106781187  L 586.185786437627 127  L 581.892893218813 131.292893218813  L 583.307106781187 132.707106781187  L 588.307106781187 127.707106781187  L 589.014213562373 127  L 588.307106781187 126.292893218813  L 583.307106781187 121.292893218813  L 581.892893218813 122.707106781187  Z " fill-rule="nonzero" fill="#ec808d" stroke="none" />
</svg>