<?xml version="1.0" encoding="utf-8"?>
<svg version="1.1" xmlns:xlink="http://www.w3.org/1999/xlink" width="350px" height="639px" xmlns="http://www.w3.org/2000/svg">
  <g transform="matrix(1 0 0 1 -1284 -99 )">
    <path d="M 1285 101  A 1 1 0 0 1 1286 100 L 1632 100  A 1 1 0 0 1 1633 101 L 1633 736  A 1 1 0 0 1 1632 737 L 1286 737  A 1 1 0 0 1 1285 736 L 1285 101  Z " fill-rule="nonzero" fill="#ffffff" stroke="none" fill-opacity="0.317647058823529" />
    <path d="M 1284.5 101  A 1.5 1.5 0 0 1 1286 99.5 L 1632 99.5  A 1.5 1.5 0 0 1 1633.5 101 L 1633.5 736  A 1.5 1.5 0 0 1 1632 737.5 L 1286 737.5  A 1.5 1.5 0 0 1 1284.5 736 L 1284.5 101  Z " stroke-width="1" stroke="#d4d4d4" fill="none" stroke-opacity="0.996078431372549" />
  </g>
</svg>