<?xml version="1.0" encoding="utf-8"?>
<svg version="1.1" xmlns:xlink="http://www.w3.org/1999/xlink" width="12px" height="10px" preserveAspectRatio="xMinYMid meet" viewBox="433 876  12 8" xmlns="http://www.w3.org/2000/svg">
  <path d="M 435 880  A 5 5 0 0 1 440 885 A 5 5 0 0 0 445 890 L 465 890  A 5 5 0 0 1 470 895 L 470 1075  A 5 5 0 0 0 475 1080 L 498 1080  " stroke-width="2" stroke="#ec808d" fill="none" />
  <path d="M 436.477601033307 876.723317554372  A 3.5 3.5 0 0 0 432.977601033307 880.223317554372 A 3.5 3.5 0 0 0 436.477601033307 883.723317554372 A 3.5 3.5 0 0 0 439.977601033307 880.223317554372 A 3.5 3.5 0 0 0 436.477601033307 876.723317554372 Z M 492.892893218813 1075.70710678119  L 497.185786437627 1080  L 492.892893218813 1084.29289321881  L 494.307106781187 1085.70710678119  L 499.307106781187 1080.70710678119  L 500.014213562373 1080  L 499.307106781187 1079.29289321881  L 494.307106781187 1074.29289321881  L 492.892893218813 1075.70710678119  Z " fill-rule="nonzero" fill="#ec808d" stroke="none" />
</svg>