<?xml version="1.0" encoding="utf-8"?>
<svg version="1.1" xmlns:xlink="http://www.w3.org/1999/xlink" width="20px" height="20px" preserveAspectRatio="xMinYMid meet" viewBox="475 330  20 18" xmlns="http://www.w3.org/2000/svg">
  <path d="M 437 366  L 465 366  A 5 5 0 0 0 470 361 L 470 344  A 5 5 0 0 1 475 339 L 485 339  " stroke-width="2" stroke="#ec808d" fill="none" />
  <path d="M 438.5 362.5  A 3.5 3.5 0 0 0 435 366 A 3.5 3.5 0 0 0 438.5 369.5 A 3.5 3.5 0 0 0 442 366 A 3.5 3.5 0 0 0 438.5 362.5 Z M 479.892893218813 334.707106781187  L 484.185786437627 339  L 479.892893218813 343.292893218813  L 481.307106781187 344.707106781187  L 486.307106781187 339.707106781187  L 487.014213562373 339  L 486.307106781187 338.292893218813  L 481.307106781187 333.292893218813  L 479.892893218813 334.707106781187  Z " fill-rule="nonzero" fill="#ec808d" stroke="none" />
</svg>