<?xml version="1.0" encoding="utf-8"?>
<svg version="1.1" xmlns:xlink="http://www.w3.org/1999/xlink" width="350px" height="739px" xmlns="http://www.w3.org/2000/svg">
  <g transform="matrix(1 0 0 1 -2583 -112 )">
    <path d="M 2584 114  A 1 1 0 0 1 2585 113 L 2931 113  A 1 1 0 0 1 2932 114 L 2932 849  A 1 1 0 0 1 2931 850 L 2585 850  A 1 1 0 0 1 2584 849 L 2584 114  Z " fill-rule="nonzero" fill="#ffffff" stroke="none" fill-opacity="0.317647058823529" />
    <path d="M 2583.5 114  A 1.5 1.5 0 0 1 2585 112.5 L 2931 112.5  A 1.5 1.5 0 0 1 2932.5 114 L 2932.5 849  A 1.5 1.5 0 0 1 2931 850.5 L 2585 850.5  A 1.5 1.5 0 0 1 2583.5 849 L 2583.5 114  Z " stroke-width="1" stroke="#d4d4d4" fill="none" stroke-opacity="0.996078431372549" />
  </g>
</svg>