<?xml version="1.0" encoding="utf-8"?>
<svg version="1.1" xmlns:xlink="http://www.w3.org/1999/xlink" width="350px" height="640px" xmlns="http://www.w3.org/2000/svg">
  <g transform="matrix(1 0 0 1 -2113 -112 )">
    <path d="M 2114 114  A 1 1 0 0 1 2115 113 L 2461 113  A 1 1 0 0 1 2462 114 L 2462 750  A 1 1 0 0 1 2461 751 L 2115 751  A 1 1 0 0 1 2114 750 L 2114 114  Z " fill-rule="nonzero" fill="#aaaaaa" stroke="none" fill-opacity="0.474509803921569" />
    <path d="M 2113.5 114  A 1.5 1.5 0 0 1 2115 112.5 L 2461 112.5  A 1.5 1.5 0 0 1 2462.5 114 L 2462.5 750  A 1.5 1.5 0 0 1 2461 751.5 L 2115 751.5  A 1.5 1.5 0 0 1 2113.5 750 L 2113.5 114  Z " stroke-width="1" stroke="#ffffff" fill="none" stroke-opacity="0.494117647058824" />
  </g>
</svg>