<?xml version="1.0" encoding="utf-8"?>
<svg version="1.1" xmlns:xlink="http://www.w3.org/1999/xlink" width="40px" height="40px" xmlns="http://www.w3.org/2000/svg">
  <defs>
    <filter x="52px" y="44px" width="40px" height="40px" filterUnits="userSpaceOnUse" id="filter80">
      <feOffset dx="1" dy="1" in="SourceAlpha" result="shadowOffsetInner" />
      <feGaussianBlur stdDeviation="2.5" in="shadowOffsetInner" result="shadowGaussian" />
      <feComposite in2="shadowGaussian" operator="atop" in="SourceAlpha" result="shadowComposite" />
      <feColorMatrix type="matrix" values="0 0 0 0 0  0 0 0 0 0  0 0 0 0 0  0 0 0 0.698039215686274 0  " in="shadowComposite" />
    </filter>
    <g id="widget81">
      <path d="M 71 48  C 79.4 48  86 54.6  86 63  C 86 71.4  79.4 78  71 78  C 62.6 78  56 71.4  56 63  C 56 54.6  62.6 48  71 48  Z " fill-rule="nonzero" fill="#f59a23" stroke="none" />
      <path d="M 71 48.5  C 79.12 48.5  85.5 54.88  85.5 63  C 85.5 71.12  79.12 77.5  71 77.5  C 62.88 77.5  56.5 71.12  56.5 63  C 56.5 54.88  62.88 48.5  71 48.5  Z " stroke-width="1" stroke="#ffffff" fill="none" />
    </g>
  </defs>
  <g transform="matrix(1 0 0 1 -52 -44 )">
    <use xlink:href="#widget81" filter="url(#filter80)" />
    <use xlink:href="#widget81" />
  </g>
</svg>