<?xml version="1.0" encoding="utf-8"?>
<svg version="1.1" xmlns:xlink="http://www.w3.org/1999/xlink" width="21px" height="20px" preserveAspectRatio="xMinYMid meet" viewBox="426 697  21 18" xmlns="http://www.w3.org/2000/svg">
  <path d="M 435 706  L 469.5 706  A 0.5 0.5 0 0 1 470 706.5 A 0.5 0.5 0 0 0 470.5 707 L 485 707  " stroke-width="2" stroke="#ec808d" fill="none" />
  <path d="M 436.5 702.5  A 3.5 3.5 0 0 0 433 706 A 3.5 3.5 0 0 0 436.5 709.5 A 3.5 3.5 0 0 0 440 706 A 3.5 3.5 0 0 0 436.5 702.5 Z M 479.892893218813 702.707106781187  L 484.185786437627 707  L 479.892893218813 711.292893218813  L 481.307106781187 712.707106781187  L 486.307106781187 707.707106781187  L 487.014213562373 707  L 486.307106781187 706.292893218813  L 481.307106781187 701.292893218813  L 479.892893218813 702.707106781187  Z " fill-rule="nonzero" fill="#ec808d" stroke="none" />
</svg>