<?xml version="1.0" encoding="utf-8"?>
<svg version="1.1" xmlns:xlink="http://www.w3.org/1999/xlink" width="21px" height="20px" preserveAspectRatio="xMinYMid meet" viewBox="2035 188  21 18" xmlns="http://www.w3.org/2000/svg">
  <path d="M 2044 197  L 2095 197  A 5 5 0 0 1 2100 202 L 2100 467  A 5 5 0 0 0 2105 472 L 2111 472  " stroke-width="2" stroke="#ec808d" fill="none" />
  <path d="M 2045.5 193.5  A 3.5 3.5 0 0 0 2042 197 A 3.5 3.5 0 0 0 2045.5 200.5 A 3.5 3.5 0 0 0 2049 197 A 3.5 3.5 0 0 0 2045.5 193.5 Z M 2105.89289321881 467.707106781187  L 2110.18578643763 472  L 2105.89289321881 476.292893218813  L 2107.30710678119 477.707106781187  L 2112.30710678119 472.707106781187  L 2113.01421356237 472  L 2112.30710678119 471.292893218813  L 2107.30710678119 466.292893218813  L 2105.89289321881 467.707106781187  Z " fill-rule="nonzero" fill="#ec808d" stroke="none" />
</svg>