<?xml version="1.0" encoding="utf-8"?>
<svg version="1.1" xmlns:xlink="http://www.w3.org/1999/xlink" width="18px" height="18px" xmlns="http://www.w3.org/2000/svg">
  <g transform="matrix(1 0 0 1 -3174 -435 )">
    <path d="M 3183 435  C 3188.04 435  3192 438.96  3192 444  C 3192 449.04  3188.04 453  3183 453  C 3177.96 453  3174 449.04  3174 444  C 3174 438.96  3177.96 435  3183 435  Z " fill-rule="nonzero" fill="#ffffff" stroke="none" />
    <path d="M 3183 435.5  C 3187.76 435.5  3191.5 439.24  3191.5 444  C 3191.5 448.76  3187.76 452.5  3183 452.5  C 3178.24 452.5  3174.5 448.76  3174.5 444  C 3174.5 439.24  3178.24 435.5  3183 435.5  Z " stroke-width="1" stroke="#797979" fill="none" />
  </g>
</svg>