<?xml version="1.0" encoding="utf-8"?>
<svg version="1.1" xmlns:xlink="http://www.w3.org/1999/xlink" width="20px" height="20px" preserveAspectRatio="xMinYMid meet" viewBox="3044 226  20 18" xmlns="http://www.w3.org/2000/svg">
  <path d="M 2927 224  L 2948 224  A 2 2 0 0 0 2950 222 A 2 2 0 0 1 2952 220 L 3049 220  A 5 5 0 0 1 3054 225 L 3054 235  " stroke-width="2" stroke="#ec808d" fill="none" />
  <path d="M 2928.5 220.5  A 3.5 3.5 0 0 0 2925 224 A 3.5 3.5 0 0 0 2928.5 227.5 A 3.5 3.5 0 0 0 2932 224 A 3.5 3.5 0 0 0 2928.5 220.5 Z M 3058.29289321881 229.892893218813  L 3054 234.185786437627  L 3049.70710678119 229.892893218813  L 3048.29289321881 231.307106781187  L 3053.29289321881 236.307106781187  L 3054 237.014213562373  L 3054.70710678119 236.307106781187  L 3059.70710678119 231.307106781187  L 3058.29289321881 229.892893218813  Z " fill-rule="nonzero" fill="#ec808d" stroke="none" />
</svg>