<?xml version="1.0" encoding="utf-8"?>
<svg version="1.1" xmlns:xlink="http://www.w3.org/1999/xlink" width="350px" height="45px" xmlns="http://www.w3.org/2000/svg">
  <g transform="matrix(1 0 0 1 -3625 -812 )">
    <path d="M 3626 814  A 1 1 0 0 1 3627 813 L 3973 813  A 1 1 0 0 1 3974 814 L 3974 855  A 1 1 0 0 1 3973 856 L 3627 856  A 1 1 0 0 1 3626 855 L 3626 814  Z " fill-rule="nonzero" fill="#ffffff" stroke="none" fill-opacity="0.317647058823529" />
    <path d="M 3625.5 814  A 1.5 1.5 0 0 1 3627 812.5 L 3973 812.5  A 1.5 1.5 0 0 1 3974.5 814 L 3974.5 855  A 1.5 1.5 0 0 1 3973 856.5 L 3627 856.5  A 1.5 1.5 0 0 1 3625.5 855 L 3625.5 814  Z " stroke-width="1" stroke="#d4d4d4" fill="none" stroke-opacity="0.996078431372549" />
  </g>
</svg>