<?xml version="1.0" encoding="utf-8"?>
<svg version="1.1" xmlns:xlink="http://www.w3.org/1999/xlink" width="69px" height="27px" xmlns="http://www.w3.org/2000/svg">
  <g transform="matrix(1 0 0 1 -3645 -821 )">
    <path d="M 3646 823  A 1 1 0 0 1 3647 822 L 3712 822  A 1 1 0 0 1 3713 823 L 3713 846  A 1 1 0 0 1 3712 847 L 3647 847  A 1 1 0 0 1 3646 846 L 3646 823  Z " fill-rule="nonzero" fill="#ffffff" stroke="none" />
    <path d="M 3645.5 823  A 1.5 1.5 0 0 1 3647 821.5 L 3712 821.5  A 1.5 1.5 0 0 1 3713.5 823 L 3713.5 846  A 1.5 1.5 0 0 1 3712 847.5 L 3647 847.5  A 1.5 1.5 0 0 1 3645.5 846 L 3645.5 823  Z " stroke-width="1" stroke="#9e9e9e" fill="none" stroke-opacity="0.603921568627451" />
  </g>
</svg>