<?xml version="1.0" encoding="utf-8"?>
<svg version="1.1" xmlns:xlink="http://www.w3.org/1999/xlink" width="68px" height="27px" xmlns="http://www.w3.org/2000/svg">
  <g transform="matrix(1 0 0 1 -3902 -821 )">
    <path d="M 3903 823  A 1 1 0 0 1 3904 822 L 3968 822  A 1 1 0 0 1 3969 823 L 3969 846  A 1 1 0 0 1 3968 847 L 3904 847  A 1 1 0 0 1 3903 846 L 3903 823  Z " fill-rule="nonzero" fill="#ffffff" stroke="none" />
    <path d="M 3902.5 823  A 1.5 1.5 0 0 1 3904 821.5 L 3968 821.5  A 1.5 1.5 0 0 1 3969.5 823 L 3969.5 846  A 1.5 1.5 0 0 1 3968 847.5 L 3904 847.5  A 1.5 1.5 0 0 1 3902.5 846 L 3902.5 823  Z " stroke-width="1" stroke="#9e9e9e" fill="none" stroke-opacity="0.603921568627451" />
  </g>
</svg>