<?xml version="1.0" encoding="utf-8"?>
<svg version="1.1" xmlns:xlink="http://www.w3.org/1999/xlink" width="70px" height="31px" xmlns="http://www.w3.org/2000/svg">
  <g transform="matrix(1 0 0 1 -101 -887 )">
    <path d="M 101.5 916.498863636364  C 101.5 916.498863636364  101.5 893.943181818182  101.5 893.943181818182  C 101.5 893.667039443266  101.723857625085 893.443181818182  102 893.443181818182  C 102 893.443181818182  108.961302126483 893.443181818182  108.961302126483 893.443181818182  C 108.961302126483 893.443181818182  117.385607478479 887.631012057806  117.385607478479 887.631012057806  C 117.385607478479 887.631012057806  124.119618671709 893.443181818182  124.119618671709 893.443181818182  C 124.119618671709 893.443181818182  170 893.443181818182  170 893.443181818182  C 170.276142374915 893.443181818182  170.5 893.667039443266  170.5 893.943181818182  C 170.5 893.943181818182  170.5 916.498863636364  170.5 916.498863636364  C 170.5 916.775006011279  170.276142374915 916.998863636364  170 916.998863636364  C 170 916.998863636364  102 916.998863636364  102 916.998863636364  C 101.723857625085 916.998863636364  101.5 916.775006011279  101.5 916.498863636364  Z " fill-rule="nonzero" fill="#ffffff" stroke="none" />
    <path d="M 101 916.498863636364  C 101 916.498863636364  101 893.943181818182  101 893.943181818182  C 101 893.390897068351  101.447715250169 892.943181818182  102 892.943181818182  C 102 892.943181818182  108.805555555556 892.943181818182  108.805555555556 892.943181818182  C 108.805555555556 892.943181818182  117.41975308642 887  117.41975308642 887  C 117.41975308642 887  124.305555555556 892.943181818182  124.305555555556 892.943181818182  C 124.305555555556 892.943181818182  170 892.943181818182  170 892.943181818182  C 170.552284749831 892.943181818182  171 893.390897068351  171 893.943181818182  C 171 893.943181818182  171 916.498863636364  171 916.498863636364  C 171 917.051148386194  170.552284749831 917.498863636364  170 917.498863636364  C 170 917.498863636364  102 917.498863636364  102 917.498863636364  C 101.447715250169 917.498863636364  101 917.051148386194  101 916.498863636364  Z M 102 916.498863636364  C 102 916.498863636364  170 916.498863636364  170 916.498863636364  C 170 916.498863636364  170 893.943181818182  170 893.943181818182  C 170 893.943181818182  123.933681787862 893.943181818182  123.933681787862 893.943181818182  C 123.933681787862 893.943181818182  117.351461870539 888.262024115612  117.351461870539 888.262024115612  C 117.351461870539 888.262024115612  109.117048697411 893.943181818182  109.117048697411 893.943181818182  C 109.117048697411 893.943181818182  102 893.943181818182  102 893.943181818182  C 102 893.943181818182  102 916.498863636364  102 916.498863636364  Z " fill-rule="nonzero" fill="#d7d7d7" stroke="none" />
  </g>
</svg>