<?xml version="1.0" encoding="utf-8"?>
<svg version="1.1" xmlns:xlink="http://www.w3.org/1999/xlink" width="10px" height="176px" preserveAspectRatio="xMidYMin meet" viewBox="76 898  8 176" xmlns="http://www.w3.org/2000/svg">
  <path d="M 99 903  L 85 903  A 5 5 0 0 0 80 908 L 80 1064  A 5 5 0 0 0 85 1069 L 105 1069  " stroke-width="2" stroke="#ec808d" fill="none" />
  <path d="M 97.5 899.5  A 3.5 3.5 0 0 0 94 903 A 3.5 3.5 0 0 0 97.5 906.5 A 3.5 3.5 0 0 0 101 903 A 3.5 3.5 0 0 0 97.5 899.5 Z M 99.8928932188134 1064.70710678119  L 104.185786437627 1069  L 99.8928932188134 1073.29289321881  L 101.307106781187 1074.70710678119  L 106.307106781187 1069.70710678119  L 107.014213562373 1069  L 106.307106781187 1068.29289321881  L 101.307106781187 1063.29289321881  L 99.8928932188134 1064.70710678119  Z " fill-rule="nonzero" fill="#ec808d" stroke="none" />
</svg>