<?xml version="1.0" encoding="utf-8"?>
<svg version="1.1" xmlns:xlink="http://www.w3.org/1999/xlink" width="350px" height="812px" xmlns="http://www.w3.org/2000/svg">
  <g transform="matrix(1 0 0 1 -4005 -107 )">
    <path d="M 4006 109  A 1 1 0 0 1 4007 108 L 4353 108  A 1 1 0 0 1 4354 109 L 4354 917  A 1 1 0 0 1 4353 918 L 4007 918  A 1 1 0 0 1 4006 917 L 4006 109  Z " fill-rule="nonzero" fill="#ffffff" stroke="none" fill-opacity="0.317647058823529" />
    <path d="M 4005.5 109  A 1.5 1.5 0 0 1 4007 107.5 L 4353 107.5  A 1.5 1.5 0 0 1 4354.5 109 L 4354.5 917  A 1.5 1.5 0 0 1 4353 918.5 L 4007 918.5  A 1.5 1.5 0 0 1 4005.5 917 L 4005.5 109  Z " stroke-width="1" stroke="#d4d4d4" fill="none" stroke-opacity="0.996078431372549" />
  </g>
</svg>