<?xml version="1.0" encoding="utf-8"?>
<svg version="1.1" xmlns:xlink="http://www.w3.org/1999/xlink" width="350px" height="1011px" xmlns="http://www.w3.org/2000/svg">
  <g transform="matrix(1 0 0 1 -499 -75 )">
    <path d="M 500 77  A 1 1 0 0 1 501 76 L 847 76  A 1 1 0 0 1 848 77 L 848 1084  A 1 1 0 0 1 847 1085 L 501 1085  A 1 1 0 0 1 500 1084 L 500 77  Z " fill-rule="nonzero" fill="#ffffff" stroke="none" fill-opacity="0.317647058823529" />
    <path d="M 499.5 77  A 1.5 1.5 0 0 1 501 75.5 L 847 75.5  A 1.5 1.5 0 0 1 848.5 77 L 848.5 1084  A 1.5 1.5 0 0 1 847 1085.5 L 501 1085.5  A 1.5 1.5 0 0 1 499.5 1084 L 499.5 77  Z " stroke-width="1" stroke="#d4d4d4" fill="none" stroke-opacity="0.996078431372549" />
  </g>
</svg>