<?xml version="1.0" encoding="utf-8"?>
<svg version="1.1" xmlns:xlink="http://www.w3.org/1999/xlink" width="350px" height="746px" xmlns="http://www.w3.org/2000/svg">
  <g transform="matrix(1 0 0 1 -970 -65 )">
    <path d="M 971 67  A 1 1 0 0 1 972 66 L 1318 66  A 1 1 0 0 1 1319 67 L 1319 809  A 1 1 0 0 1 1318 810 L 972 810  A 1 1 0 0 1 971 809 L 971 67  Z " fill-rule="nonzero" fill="#ffffff" stroke="none" fill-opacity="0.317647058823529" />
    <path d="M 970.5 67  A 1.5 1.5 0 0 1 972 65.5 L 1318 65.5  A 1.5 1.5 0 0 1 1319.5 67 L 1319.5 809  A 1.5 1.5 0 0 1 1318 810.5 L 972 810.5  A 1.5 1.5 0 0 1 970.5 809 L 970.5 67  Z " stroke-width="1" stroke="#d4d4d4" fill="none" stroke-opacity="0.996078431372549" />
  </g>
</svg>