<?xml version="1.0" encoding="utf-8"?>
<svg version="1.1" xmlns:xlink="http://www.w3.org/1999/xlink" width="350px" height="753px" xmlns="http://www.w3.org/2000/svg">
  <g transform="matrix(1 0 0 1 -517 -61 )">
    <path d="M 518 63  A 1 1 0 0 1 519 62 L 865 62  A 1 1 0 0 1 866 63 L 866 812  A 1 1 0 0 1 865 813 L 519 813  A 1 1 0 0 1 518 812 L 518 63  Z " fill-rule="nonzero" fill="#ffffff" stroke="none" fill-opacity="0.317647058823529" />
    <path d="M 517.5 63  A 1.5 1.5 0 0 1 519 61.5 L 865 61.5  A 1.5 1.5 0 0 1 866.5 63 L 866.5 812  A 1.5 1.5 0 0 1 865 813.5 L 519 813.5  A 1.5 1.5 0 0 1 517.5 812 L 517.5 63  Z " stroke-width="1" stroke="#d4d4d4" fill="none" stroke-opacity="0.996078431372549" />
  </g>
</svg>