<?xml version="1.0" encoding="utf-8"?>
<svg version="1.1" xmlns:xlink="http://www.w3.org/1999/xlink" width="10px" height="15px" preserveAspectRatio="xMidYMin meet" viewBox="62 130  8 15" xmlns="http://www.w3.org/2000/svg">
  <path d="M 66 143  L 66 140  A 5 5 0 0 0 61 135 L 25 135  A 5 5 0 0 1 20 130 L 20 55  A 5 5 0 0 1 25 50 L 484 50  A 5 5 0 0 1 489 55 L 489 133  " stroke-width="2" stroke="#ec808d" fill="none" />
  <path d="M 66 138  A 3.5 3.5 0 0 0 62.5 141.5 A 3.5 3.5 0 0 0 66 145 A 3.5 3.5 0 0 0 69.5 141.5 A 3.5 3.5 0 0 0 66 138 Z M 481 125.6  L 489 135  L 497 125.6  L 489 129.2  L 481 125.6  Z " fill-rule="nonzero" fill="#ec808d" stroke="none" />
</svg>