<?xml version="1.0" encoding="utf-8"?>
<svg version="1.1" xmlns:xlink="http://www.w3.org/1999/xlink" width="12px" height="12px" viewBox="180 1945.5  12 12" xmlns="http://www.w3.org/2000/svg">
  <path d="M 186 1945.5  C 189.36 1945.5  192 1948.14  192 1951.5  C 192 1954.86  189.36 1957.5  186 1957.5  C 182.64 1957.5  180 1954.86  180 1951.5  C 180 1948.14  182.64 1945.5  186 1945.5  Z " fill-rule="nonzero" fill="#ffffff" stroke="none" />
  <path d="M 186 1946  C 189.08 1946  191.5 1948.42  191.5 1951.5  C 191.5 1954.58  189.08 1957  186 1957  C 182.92 1957  180.5 1954.58  180.5 1951.5  C 180.5 1948.42  182.92 1946  186 1946  Z " stroke-width="1" stroke="#797979" fill="none" />
  <path d="M 186 1954.5  C 184.32 1954.5  183 1953.18  183 1951.5  C 183 1949.82  184.32 1948.5  186 1948.5  C 187.68 1948.5  189 1949.82  189 1951.5  C 189 1953.18  187.68 1954.5  186 1954.5  " fill-rule="nonzero" fill="#797979" stroke="none" />
</svg>