<?xml version="1.0" encoding="utf-8"?>
<svg version="1.1" xmlns:xlink="http://www.w3.org/1999/xlink" width="12px" height="12px" viewBox="244 1896.5  12 12" xmlns="http://www.w3.org/2000/svg">
  <path d="M 250 1896.5  C 253.36 1896.5  256 1899.14  256 1902.5  C 256 1905.86  253.36 1908.5  250 1908.5  C 246.64 1908.5  244 1905.86  244 1902.5  C 244 1899.14  246.64 1896.5  250 1896.5  Z " fill-rule="nonzero" fill="#ffffff" stroke="none" />
  <path d="M 250 1897  C 253.08 1897  255.5 1899.42  255.5 1902.5  C 255.5 1905.58  253.08 1908  250 1908  C 246.92 1908  244.5 1905.58  244.5 1902.5  C 244.5 1899.42  246.92 1897  250 1897  Z " stroke-width="1" stroke="#797979" fill="none" />
  <path d="M 250 1905.5  C 248.32 1905.5  247 1904.18  247 1902.5  C 247 1900.82  248.32 1899.5  250 1899.5  C 251.68 1899.5  253 1900.82  253 1902.5  C 253 1904.18  251.68 1905.5  250 1905.5  " fill-rule="nonzero" fill="#797979" stroke="none" />
</svg>