<?xml version="1.0" encoding="utf-8"?>
<svg version="1.1" xmlns:xlink="http://www.w3.org/1999/xlink" width="12px" height="12px" viewBox="179 2181.5  12 12" xmlns="http://www.w3.org/2000/svg">
  <path d="M 185 2181.5  C 188.36 2181.5  191 2184.14  191 2187.5  C 191 2190.86  188.36 2193.5  185 2193.5  C 181.64 2193.5  179 2190.86  179 2187.5  C 179 2184.14  181.64 2181.5  185 2181.5  Z " fill-rule="nonzero" fill="#ffffff" stroke="none" />
  <path d="M 185 2182  C 188.08 2182  190.5 2184.42  190.5 2187.5  C 190.5 2190.58  188.08 2193  185 2193  C 181.92 2193  179.5 2190.58  179.5 2187.5  C 179.5 2184.42  181.92 2182  185 2182  Z " stroke-width="1" stroke="#797979" fill="none" />
  <path d="M 185 2190.5  C 183.32 2190.5  182 2189.18  182 2187.5  C 182 2185.82  183.32 2184.5  185 2184.5  C 186.68 2184.5  188 2185.82  188 2187.5  C 188 2189.18  186.68 2190.5  185 2190.5  " fill-rule="nonzero" fill="#797979" stroke="none" />
</svg>