<?xml version="1.0" encoding="utf-8"?>
<svg version="1.1" xmlns:xlink="http://www.w3.org/1999/xlink" width="12px" height="12px" viewBox="268 2181.5  12 12" xmlns="http://www.w3.org/2000/svg">
  <path d="M 274 2181.5  C 277.36 2181.5  280 2184.14  280 2187.5  C 280 2190.86  277.36 2193.5  274 2193.5  C 270.64 2193.5  268 2190.86  268 2187.5  C 268 2184.14  270.64 2181.5  274 2181.5  Z " fill-rule="nonzero" fill="#ffffff" stroke="none" />
  <path d="M 274 2182  C 277.08 2182  279.5 2184.42  279.5 2187.5  C 279.5 2190.58  277.08 2193  274 2193  C 270.92 2193  268.5 2190.58  268.5 2187.5  C 268.5 2184.42  270.92 2182  274 2182  Z " stroke-width="1" stroke="#797979" fill="none" />
  <path d="M 274 2190.5  C 272.32 2190.5  271 2189.18  271 2187.5  C 271 2185.82  272.32 2184.5  274 2184.5  C 275.68 2184.5  277 2185.82  277 2187.5  C 277 2189.18  275.68 2190.5  274 2190.5  " fill-rule="nonzero" fill="#797979" stroke="none" />
</svg>