<?xml version="1.0" encoding="utf-8"?>
<svg version="1.1" xmlns:xlink="http://www.w3.org/1999/xlink" width="12px" height="12px" viewBox="244 1945.5  12 12" xmlns="http://www.w3.org/2000/svg">
  <path d="M 250 1945.5  C 253.36 1945.5  256 1948.14  256 1951.5  C 256 1954.86  253.36 1957.5  250 1957.5  C 246.64 1957.5  244 1954.86  244 1951.5  C 244 1948.14  246.64 1945.5  250 1945.5  Z " fill-rule="nonzero" fill="#ffffff" stroke="none" />
  <path d="M 250 1946  C 253.08 1946  255.5 1948.42  255.5 1951.5  C 255.5 1954.58  253.08 1957  250 1957  C 246.92 1957  244.5 1954.58  244.5 1951.5  C 244.5 1948.42  246.92 1946  250 1946  Z " stroke-width="1" stroke="#797979" fill="none" />
  <path d="M 250 1954.5  C 248.32 1954.5  247 1953.18  247 1951.5  C 247 1949.82  248.32 1948.5  250 1948.5  C 251.68 1948.5  253 1949.82  253 1951.5  C 253 1953.18  251.68 1954.5  250 1954.5  " fill-rule="nonzero" fill="#797979" stroke="none" />
</svg>