<?xml version="1.0" encoding="utf-8"?>
<svg version="1.1" xmlns:xlink="http://www.w3.org/1999/xlink" width="12px" height="12px" viewBox="250 2043.5  12 12" xmlns="http://www.w3.org/2000/svg">
  <path d="M 256 2043.5  C 259.36 2043.5  262 2046.14  262 2049.5  C 262 2052.86  259.36 2055.5  256 2055.5  C 252.64 2055.5  250 2052.86  250 2049.5  C 250 2046.14  252.64 2043.5  256 2043.5  Z " fill-rule="nonzero" fill="#ffffff" stroke="none" />
  <path d="M 256 2044  C 259.08 2044  261.5 2046.42  261.5 2049.5  C 261.5 2052.58  259.08 2055  256 2055  C 252.92 2055  250.5 2052.58  250.5 2049.5  C 250.5 2046.42  252.92 2044  256 2044  Z " stroke-width="1" stroke="#797979" fill="none" />
  <path d="M 256 2052.5  C 254.32 2052.5  253 2051.18  253 2049.5  C 253 2047.82  254.32 2046.5  256 2046.5  C 257.68 2046.5  259 2047.82  259 2049.5  C 259 2051.18  257.68 2052.5  256 2052.5  " fill-rule="nonzero" fill="#797979" stroke="none" />
</svg>