<?xml version="1.0" encoding="utf-8"?>
<svg version="1.1" xmlns:xlink="http://www.w3.org/1999/xlink" width="12px" height="12px" viewBox="250 2078.5  12 12" xmlns="http://www.w3.org/2000/svg">
  <path d="M 256 2078.5  C 259.36 2078.5  262 2081.14  262 2084.5  C 262 2087.86  259.36 2090.5  256 2090.5  C 252.64 2090.5  250 2087.86  250 2084.5  C 250 2081.14  252.64 2078.5  256 2078.5  Z " fill-rule="nonzero" fill="#ffffff" stroke="none" />
  <path d="M 256 2079  C 259.08 2079  261.5 2081.42  261.5 2084.5  C 261.5 2087.58  259.08 2090  256 2090  C 252.92 2090  250.5 2087.58  250.5 2084.5  C 250.5 2081.42  252.92 2079  256 2079  Z " stroke-width="1" stroke="#797979" fill="none" />
  <path d="M 256 2087.5  C 254.32 2087.5  253 2086.18  253 2084.5  C 253 2082.82  254.32 2081.5  256 2081.5  C 257.68 2081.5  259 2082.82  259 2084.5  C 259 2086.18  257.68 2087.5  256 2087.5  " fill-rule="nonzero" fill="#797979" stroke="none" />
</svg>