<?xml version="1.0" encoding="utf-8"?>
<svg version="1.1" xmlns:xlink="http://www.w3.org/1999/xlink" width="12px" height="12px" viewBox="249 2657.5  12 12" xmlns="http://www.w3.org/2000/svg">
  <path d="M 255 2657.5  C 258.36 2657.5  261 2660.14  261 2663.5  C 261 2666.86  258.36 2669.5  255 2669.5  C 251.64 2669.5  249 2666.86  249 2663.5  C 249 2660.14  251.64 2657.5  255 2657.5  Z " fill-rule="nonzero" fill="#ffffff" stroke="none" />
  <path d="M 255 2658  C 258.08 2658  260.5 2660.42  260.5 2663.5  C 260.5 2666.58  258.08 2669  255 2669  C 251.92 2669  249.5 2666.58  249.5 2663.5  C 249.5 2660.42  251.92 2658  255 2658  Z " stroke-width="1" stroke="#797979" fill="none" />
  <path d="M 255 2666.5  C 253.32 2666.5  252 2665.18  252 2663.5  C 252 2661.82  253.32 2660.5  255 2660.5  C 256.68 2660.5  258 2661.82  258 2663.5  C 258 2665.18  256.68 2666.5  255 2666.5  " fill-rule="nonzero" fill="#797979" stroke="none" />
</svg>