<?xml version="1.0" encoding="utf-8"?>
<svg version="1.1" xmlns:xlink="http://www.w3.org/1999/xlink" width="12px" height="12px" viewBox="180 2131.5  12 12" xmlns="http://www.w3.org/2000/svg">
  <path d="M 186 2131.5  C 189.36 2131.5  192 2134.14  192 2137.5  C 192 2140.86  189.36 2143.5  186 2143.5  C 182.64 2143.5  180 2140.86  180 2137.5  C 180 2134.14  182.64 2131.5  186 2131.5  Z " fill-rule="nonzero" fill="#ffffff" stroke="none" />
  <path d="M 186 2132  C 189.08 2132  191.5 2134.42  191.5 2137.5  C 191.5 2140.58  189.08 2143  186 2143  C 182.92 2143  180.5 2140.58  180.5 2137.5  C 180.5 2134.42  182.92 2132  186 2132  Z " stroke-width="1" stroke="#797979" fill="none" />
  <path d="M 186 2140.5  C 184.32 2140.5  183 2139.18  183 2137.5  C 183 2135.82  184.32 2134.5  186 2134.5  C 187.68 2134.5  189 2135.82  189 2137.5  C 189 2139.18  187.68 2140.5  186 2140.5  " fill-rule="nonzero" fill="#797979" stroke="none" />
</svg>