<?xml version="1.0" encoding="utf-8"?>
<svg version="1.1" xmlns:xlink="http://www.w3.org/1999/xlink" width="12px" height="12px" viewBox="180 2078.5  12 12" xmlns="http://www.w3.org/2000/svg">
  <path d="M 186 2078.5  C 189.36 2078.5  192 2081.14  192 2084.5  C 192 2087.86  189.36 2090.5  186 2090.5  C 182.64 2090.5  180 2087.86  180 2084.5  C 180 2081.14  182.64 2078.5  186 2078.5  Z " fill-rule="nonzero" fill="#ffffff" stroke="none" />
  <path d="M 186 2079  C 189.08 2079  191.5 2081.42  191.5 2084.5  C 191.5 2087.58  189.08 2090  186 2090  C 182.92 2090  180.5 2087.58  180.5 2084.5  C 180.5 2081.42  182.92 2079  186 2079  Z " stroke-width="1" stroke="#797979" fill="none" />
  <path d="M 186 2087.5  C 184.32 2087.5  183 2086.18  183 2084.5  C 183 2082.82  184.32 2081.5  186 2081.5  C 187.68 2081.5  189 2082.82  189 2084.5  C 189 2086.18  187.68 2087.5  186 2087.5  " fill-rule="nonzero" fill="#797979" stroke="none" />
</svg>