<?xml version="1.0" encoding="utf-8"?>
<svg version="1.1" xmlns:xlink="http://www.w3.org/1999/xlink" width="350px" height="1315px" xmlns="http://www.w3.org/2000/svg">
  <g transform="matrix(1 0 0 1 -572 -78 )">
    <path d="M 573 80  A 1 1 0 0 1 574 79 L 920 79  A 1 1 0 0 1 921 80 L 921 1391  A 1 1 0 0 1 920 1392 L 574 1392  A 1 1 0 0 1 573 1391 L 573 80  Z " fill-rule="nonzero" fill="#ffffff" stroke="none" fill-opacity="0.317647058823529" />
    <path d="M 572.5 80  A 1.5 1.5 0 0 1 574 78.5 L 920 78.5  A 1.5 1.5 0 0 1 921.5 80 L 921.5 1391  A 1.5 1.5 0 0 1 920 1392.5 L 574 1392.5  A 1.5 1.5 0 0 1 572.5 1391 L 572.5 80  Z " stroke-width="1" stroke="#d4d4d4" fill="none" stroke-opacity="0.996078431372549" />
  </g>
</svg>