<?xml version="1.0" encoding="utf-8"?>
<svg version="1.1" xmlns:xlink="http://www.w3.org/1999/xlink" width="350px" height="606px" xmlns="http://www.w3.org/2000/svg">
  <g transform="matrix(1 0 0 1 -77 -68 )">
    <path d="M 78 70  A 1 1 0 0 1 79 69 L 425 69  A 1 1 0 0 1 426 70 L 426 672  A 1 1 0 0 1 425 673 L 79 673  A 1 1 0 0 1 78 672 L 78 70  Z " fill-rule="nonzero" fill="#ffffff" stroke="none" fill-opacity="0.317647058823529" />
    <path d="M 77.5 70  A 1.5 1.5 0 0 1 79 68.5 L 425 68.5  A 1.5 1.5 0 0 1 426.5 70 L 426.5 672  A 1.5 1.5 0 0 1 425 673.5 L 79 673.5  A 1.5 1.5 0 0 1 77.5 672 L 77.5 70  Z " stroke-width="1" stroke="#d4d4d4" fill="none" stroke-opacity="0.996078431372549" />
  </g>
</svg>