<?xml version="1.0" encoding="utf-8"?>
<svg version="1.1" xmlns:xlink="http://www.w3.org/1999/xlink" width="600px" height="10px" preserveAspectRatio="xMinYMid meet" viewBox="555 26  600 8" xmlns="http://www.w3.org/2000/svg">
  <path d="M 585 164  L 565 164  A 5 5 0 0 1 560 159 L 560 35  A 5 5 0 0 1 565 30 L 1145 30  A 5 5 0 0 1 1150 35 L 1150 72  A 5 5 0 0 0 1155 77 L 1164 77  " stroke-width="2" stroke="#ec808d" fill="none" />
  <path d="M 1158.89289321881 72.7071067811866  L 1163.18578643763 77  L 1158.89289321881 81.2928932188134  L 1160.30710678119 82.7071067811866  L 1165.30710678119 77.7071067811866  L 1166.01421356237 77  L 1165.30710678119 76.2928932188134  L 1160.30710678119 71.2928932188134  L 1158.89289321881 72.7071067811866  Z " fill-rule="nonzero" fill="#ec808d" stroke="none" />
</svg>