<?xml version="1.0" encoding="utf-8"?>
<svg version="1.1" xmlns:xlink="http://www.w3.org/1999/xlink" width="21px" height="20px" preserveAspectRatio="xMinYMid meet" viewBox="416 168  21 18" xmlns="http://www.w3.org/2000/svg">
  <path d="M 425 177  L 469.5 177  A 0.5 0.5 0 0 1 470 177.5 A 0.5 0.5 0 0 0 470.5 178 L 481 178  " stroke-width="2" stroke="#ec808d" fill="none" />
  <path d="M 426.5 173.5  A 3.5 3.5 0 0 0 423 177 A 3.5 3.5 0 0 0 426.5 180.5 A 3.5 3.5 0 0 0 430 177 A 3.5 3.5 0 0 0 426.5 173.5 Z M 473.6 186  L 483 178  L 473.6 170  L 477.2 178  L 473.6 186  Z " fill-rule="nonzero" fill="#ec808d" stroke="none" />
</svg>