<?xml version="1.0" encoding="utf-8"?>
<svg version="1.1" xmlns:xlink="http://www.w3.org/1999/xlink" width="106px" height="48px" xmlns="http://www.w3.org/2000/svg">
  <defs>
    <mask fill="white" id="clip29">
      <path d="M 0 43  L 0 5  C 0 2.2  2.95189873417721 0  6.70886075949367 0  L 99.2911392405063 0  C 103.048101265823 0  106 2.2  106 5  L 106 43  C 106 45.8  103.048101265823 48  99.2911392405063 48  L 6.70886075949367 48  C 2.95189873417721 48  0 45.8  0 43  Z " fill-rule="evenodd" />
    </mask>
  </defs>
  <g transform="matrix(1 0 0 1 -1189 -800 )">
    <path d="M 0 43  L 0 5  C 0 2.2  2.95189873417721 0  6.70886075949367 0  L 99.2911392405063 0  C 103.048101265823 0  106 2.2  106 5  L 106 43  C 106 45.8  103.048101265823 48  99.2911392405063 48  L 6.70886075949367 48  C 2.95189873417721 48  0 45.8  0 43  Z " fill-rule="nonzero" fill="#ffffff" stroke="none" transform="matrix(1 0 0 1 1189 800 )" />
    <path d="M 0 43  L 0 5  C 0 2.2  2.95189873417721 0  6.70886075949367 0  L 99.2911392405063 0  C 103.048101265823 0  106 2.2  106 5  L 106 43  C 106 45.8  103.048101265823 48  99.2911392405063 48  L 6.70886075949367 48  C 2.95189873417721 48  0 45.8  0 43  Z " stroke-width="2" stroke="#aaaaaa" fill="none" transform="matrix(1 0 0 1 1189 800 )" mask="url(#clip29)" />
  </g>
</svg>