<?xml version="1.0" encoding="utf-8"?>
<svg version="1.1" xmlns:xlink="http://www.w3.org/1999/xlink" width="21px" height="20px" preserveAspectRatio="xMinYMid meet" viewBox="321 271  21 18" xmlns="http://www.w3.org/2000/svg">
  <path d="M 330 280  L 508 280  A 1 1 0 0 0 509 279 A 1 1 0 0 1 510 278 L 540 278  A 2 2 0 0 1 542 280 L 542 280  " stroke-width="2" stroke="#ec808d" fill="none" />
  <path d="M 331.5 276.5  A 3.5 3.5 0 0 0 328 280 A 3.5 3.5 0 0 0 331.5 283.5 A 3.5 3.5 0 0 0 335 280 A 3.5 3.5 0 0 0 331.5 276.5 Z M 541.463377737748 275.136722479953  A 3.5 3.5 0 0 0 537.963377737748 278.636722479953 A 3.5 3.5 0 0 0 541.463377737748 282.136722479953 A 3.5 3.5 0 0 0 544.963377737748 278.636722479953 A 3.5 3.5 0 0 0 541.463377737748 275.136722479953 Z " fill-rule="nonzero" fill="#ec808d" stroke="none" />
</svg>