<?xml version="1.0" encoding="utf-8"?>
<svg version="1.1" xmlns:xlink="http://www.w3.org/1999/xlink" width="20px" height="21px" preserveAspectRatio="xMidYMin meet" viewBox="1098 536  18 21" xmlns="http://www.w3.org/2000/svg">
  <path d="M 1107 545  L 1107 588  A 5 5 0 0 0 1112 593 L 1207 593  A 3 3 0 0 1 1210 590 A 3 3 0 0 1 1213 593 L 1237 593  " stroke-width="2" stroke="#ec808d" fill="none" />
  <path d="M 1107 543  A 3.5 3.5 0 0 0 1103.5 546.5 A 3.5 3.5 0 0 0 1107 550 A 3.5 3.5 0 0 0 1110.5 546.5 A 3.5 3.5 0 0 0 1107 543 Z M 1235.5 589.5  A 3.5 3.5 0 0 0 1232 593 A 3.5 3.5 0 0 0 1235.5 596.5 A 3.5 3.5 0 0 0 1239 593 A 3.5 3.5 0 0 0 1235.5 589.5 Z " fill-rule="nonzero" fill="#ec808d" stroke="none" />
</svg>