<?xml version="1.0" encoding="utf-8"?>
<svg version="1.1" xmlns:xlink="http://www.w3.org/1999/xlink" width="399px" height="10px" preserveAspectRatio="xMinYMid meet" viewBox="816 710  399 8" xmlns="http://www.w3.org/2000/svg">
  <path d="M 818 714  L 1205 714  A 5 5 0 0 0 1210 709 L 1210 405  A 3 3 0 0 0 1213 402 A 3 3 0 0 0 1210 399 L 1210 255  A 5 5 0 0 0 1205 250 L 1028 250  A 5 5 0 0 0 1023 255 L 1023 262  " stroke-width="2" stroke="#ec808d" fill="none" />
  <path d="M 819.5 710.5  A 3.5 3.5 0 0 0 816 714 A 3.5 3.5 0 0 0 819.5 717.5 A 3.5 3.5 0 0 0 823 714 A 3.5 3.5 0 0 0 819.5 710.5 Z M 1015 254.6  L 1023 264  L 1031 254.6  L 1023 258.2  L 1015 254.6  Z " fill-rule="nonzero" fill="#ec808d" stroke="none" />
</svg>