<?xml version="1.0" encoding="utf-8"?>
<svg version="1.1" xmlns:xlink="http://www.w3.org/1999/xlink" width="17px" height="10px" preserveAspectRatio="xMinYMid meet" viewBox="5 8  17 8" xmlns="http://www.w3.org/2000/svg">
  <path d="M 81 137  L 15 137  A 5 5 0 0 1 10 132 L 10 17  A 5 5 0 0 1 15 12 L 20 12  " stroke-width="2" stroke="#ec808d" fill="none" />
  <path d="M 79.5 133.5  A 3.5 3.5 0 0 0 76 137 A 3.5 3.5 0 0 0 79.5 140.5 A 3.5 3.5 0 0 0 83 137 A 3.5 3.5 0 0 0 79.5 133.5 Z M 12.6 20  L 22 12  L 12.6 4  L 16.2 12  L 12.6 20  Z " fill-rule="nonzero" fill="#ec808d" stroke="none" />
</svg>