<?xml version="1.0" encoding="utf-8"?>
<svg version="1.1" xmlns:xlink="http://www.w3.org/1999/xlink" width="12px" height="12px" viewBox="70 512  12 12" xmlns="http://www.w3.org/2000/svg">
  <path d="M 76 512  C 79.36 512  82 514.64  82 518  C 82 521.36  79.36 524  76 524  C 72.64 524  70 521.36  70 518  C 70 514.64  72.64 512  76 512  Z " fill-rule="nonzero" fill="#ffffff" stroke="none" />
  <path d="M 76 512.5  C 79.08 512.5  81.5 514.92  81.5 518  C 81.5 521.08  79.08 523.5  76 523.5  C 72.92 523.5  70.5 521.08  70.5 518  C 70.5 514.92  72.92 512.5  76 512.5  Z " stroke-width="1" stroke="#797979" fill="none" />
  <path d="M 76 521  C 74.32 521  73 519.68  73 518  C 73 516.32  74.32 515  76 515  C 77.68 515  79 516.32  79 518  C 79 519.68  77.68 521  76 521  " fill-rule="nonzero" fill="#797979" stroke="none" />
</svg>