<?xml version="1.0" encoding="utf-8"?>
<svg version="1.1" xmlns:xlink="http://www.w3.org/1999/xlink" width="12px" height="12px" viewBox="70 336  12 12" xmlns="http://www.w3.org/2000/svg">
  <path d="M 76 336  C 79.36 336  82 338.64  82 342  C 82 345.36  79.36 348  76 348  C 72.64 348  70 345.36  70 342  C 70 338.64  72.64 336  76 336  Z " fill-rule="nonzero" fill="#ffffff" stroke="none" />
  <path d="M 76 336.5  C 79.08 336.5  81.5 338.92  81.5 342  C 81.5 345.08  79.08 347.5  76 347.5  C 72.92 347.5  70.5 345.08  70.5 342  C 70.5 338.92  72.92 336.5  76 336.5  Z " stroke-width="1" stroke="#797979" fill="none" />
  <path d="M 76 345  C 74.32 345  73 343.68  73 342  C 73 340.32  74.32 339  76 339  C 77.68 339  79 340.32  79 342  C 79 343.68  77.68 345  76 345  " fill-rule="nonzero" fill="#797979" stroke="none" />
</svg>