<?xml version="1.0" encoding="utf-8"?>
<svg version="1.1" xmlns:xlink="http://www.w3.org/1999/xlink" width="12px" height="12px" viewBox="70 248  12 12" xmlns="http://www.w3.org/2000/svg">
  <path d="M 76 248  C 79.36 248  82 250.64  82 254  C 82 257.36  79.36 260  76 260  C 72.64 260  70 257.36  70 254  C 70 250.64  72.64 248  76 248  Z " fill-rule="nonzero" fill="#ffffff" stroke="none" />
  <path d="M 76 248.5  C 79.08 248.5  81.5 250.92  81.5 254  C 81.5 257.08  79.08 259.5  76 259.5  C 72.92 259.5  70.5 257.08  70.5 254  C 70.5 250.92  72.92 248.5  76 248.5  Z " stroke-width="1" stroke="#797979" fill="none" />
  <path d="M 76 257  C 74.32 257  73 255.68  73 254  C 73 252.32  74.32 251  76 251  C 77.68 251  79 252.32  79 254  C 79 255.68  77.68 257  76 257  " fill-rule="nonzero" fill="#797979" stroke="none" />
</svg>