<?xml version="1.0" encoding="utf-8"?>
<svg version="1.1" xmlns:xlink="http://www.w3.org/1999/xlink" width="123px" height="56px" xmlns="http://www.w3.org/2000/svg">
  <g transform="matrix(1 0 0 1 -586 -456 )">
    <path d="M 586.5 510.427659574468  C 586.5 510.427659574468  586.5 467.223404255319  586.5 467.223404255319  C 586.5 467.223404255319  668.625475172527 467.223404255319  668.625475172527 467.223404255319  C 668.625475172527 467.223404255319  678.98982586034 456.733452289512  678.98982586034 456.733452289512  C 678.98982586034 456.733452289512  688.190068124629 467.223404255319  688.190068124629 467.223404255319  C 688.190068124629 467.223404255319  708.5 467.223404255319  708.5 467.223404255319  C 708.5 467.223404255319  708.5 510.427659574468  708.5 510.427659574468  C 708.5 510.427659574468  586.5 510.427659574468  586.5 510.427659574468  Z " fill-rule="nonzero" fill="#ffffff" stroke="none" />
    <path d="M 586 510.927659574468  C 586 510.927659574468  586 466.723404255319  586 466.723404255319  C 586 466.723404255319  668.416602167183 466.723404255319  668.416602167183 466.723404255319  C 668.416602167183 466.723404255319  679.011609907121 456  679.011609907121 456  C 679.011609907121 456  688.416602167183 466.723404255319  688.416602167183 466.723404255319  C 688.416602167183 466.723404255319  709 466.723404255319  709 466.723404255319  C 709 466.723404255319  709 510.927659574468  709 510.927659574468  C 709 510.927659574468  586 510.927659574468  586 510.927659574468  Z M 587 509.927659574468  C 587 509.927659574468  708 509.927659574468  708 509.927659574468  C 708 509.927659574468  708 467.723404255319  708 467.723404255319  C 708 467.723404255319  687.963534082075 467.723404255319  687.963534082075 467.723404255319  C 687.963534082075 467.723404255319  678.968041813559 457.466904579023  678.968041813559 457.466904579023  C 678.968041813559 457.466904579023  668.834348177872 467.723404255319  668.834348177872 467.723404255319  C 668.834348177872 467.723404255319  587 467.723404255319  587 467.723404255319  C 587 467.723404255319  587 509.927659574468  587 509.927659574468  Z " fill-rule="nonzero" fill="#aaaaaa" stroke="none" />
  </g>
</svg>