<?xml version="1.0" encoding="utf-8"?>
<svg version="1.1" xmlns:xlink="http://www.w3.org/1999/xlink" width="123px" height="56px" xmlns="http://www.w3.org/2000/svg">
  <g transform="matrix(1 0 0 1 -260 -522 )">
    <path d="M 260.5 576.427659574468  C 260.5 576.427659574468  260.5 533.223404255319  260.5 533.223404255319  C 260.5 533.223404255319  342.625475172527 533.223404255319  342.625475172527 533.223404255319  C 342.625475172527 533.223404255319  352.98982586034 522.733452289512  352.98982586034 522.733452289512  C 352.98982586034 522.733452289512  362.190068124629 533.223404255319  362.190068124629 533.223404255319  C 362.190068124629 533.223404255319  382.5 533.223404255319  382.5 533.223404255319  C 382.5 533.223404255319  382.5 576.427659574468  382.5 576.427659574468  C 382.5 576.427659574468  260.5 576.427659574468  260.5 576.427659574468  Z " fill-rule="nonzero" fill="#ffffff" stroke="none" />
    <path d="M 260 576.927659574468  C 260 576.927659574468  260 532.723404255319  260 532.723404255319  C 260 532.723404255319  342.416602167183 532.723404255319  342.416602167183 532.723404255319  C 342.416602167183 532.723404255319  353.011609907121 522  353.011609907121 522  C 353.011609907121 522  362.416602167183 532.723404255319  362.416602167183 532.723404255319  C 362.416602167183 532.723404255319  383 532.723404255319  383 532.723404255319  C 383 532.723404255319  383 576.927659574468  383 576.927659574468  C 383 576.927659574468  260 576.927659574468  260 576.927659574468  Z M 261 575.927659574468  C 261 575.927659574468  382 575.927659574468  382 575.927659574468  C 382 575.927659574468  382 533.723404255319  382 533.723404255319  C 382 533.723404255319  361.963534082075 533.723404255319  361.963534082075 533.723404255319  C 361.963534082075 533.723404255319  352.968041813559 523.466904579023  352.968041813559 523.466904579023  C 352.968041813559 523.466904579023  342.834348177872 533.723404255319  342.834348177872 533.723404255319  C 342.834348177872 533.723404255319  261 533.723404255319  261 533.723404255319  C 261 533.723404255319  261 575.927659574468  261 575.927659574468  Z " fill-rule="nonzero" fill="#aaaaaa" stroke="none" />
  </g>
</svg>